<svg width="52" height="43" viewBox="0 0 52 43" fill="none" xmlns="http://www.w3.org/2000/svg">
<path d="M46.4625 4.89085C46.5384 3.91647 46.2952 2.94385 45.7697 2.11983C45.627 1.94083 45.4457 1.79626 45.2394 1.69692C45.0331 1.59758 44.8071 1.54601 44.5782 1.54601C44.3492 1.54601 44.1232 1.59758 43.9169 1.69692C43.7107 1.79626 43.5294 1.94083 43.3866 2.11983C42.9031 2.91276 42.6415 3.82105 42.6294 4.74971C42.6172 5.67837 42.8548 6.59327 43.3174 7.39862C43.4648 7.61557 43.6657 7.79078 43.9007 7.90732C44.1357 8.02386 44.3969 8.07774 44.6588 8.06381C44.9208 8.04987 45.1747 7.9686 45.396 7.82779C45.6173 7.68698 45.7985 7.49143 45.9221 7.26006C46.3218 6.54199 46.5092 5.72514 46.4625 4.90468V4.89085ZM44.7583 13.8135H43.3035C42.8504 13.8265 42.4185 14.0086 42.0929 14.324C41.7672 14.6394 41.5714 15.0652 41.5439 15.5177C41.5388 15.8858 41.6309 16.2487 41.8109 16.5698C41.9909 16.891 42.2525 17.1589 42.5692 17.3466C43.2412 17.7908 44.0167 18.0536 44.8203 18.1094C45.6239 18.1652 46.4282 18.0123 47.1552 17.6653C47.5117 17.5375 47.8323 17.3261 48.0903 17.0489C48.3482 16.7716 48.5359 16.4366 48.6377 16.0719C48.7298 15.8594 48.7712 15.6285 48.7589 15.3973C48.7465 15.1661 48.6806 14.9409 48.5665 14.7394C48.4523 14.538 48.293 14.3658 48.101 14.2364C47.909 14.1069 47.6896 14.0239 47.46 13.9936C46.5733 13.8551 45.6727 13.8274 44.7721 13.7581L44.7583 13.8135ZM51.6997 0.0692586C51.478 0.554187 51.2425 1.02526 51.0346 1.45477C50.9631 1.70863 50.7965 1.92514 50.5694 2.05932C50.3423 2.1935 50.0723 2.23501 49.8154 2.17522C49.498 2.17334 49.1815 2.2106 48.8732 2.28608C48.9083 2.39239 48.9548 2.49459 49.0118 2.5909C49.2932 3.07093 49.4754 3.60259 49.5475 4.15433C49.6196 4.70608 49.5801 5.26665 49.4315 5.80288C49.2829 6.33911 49.0282 6.84006 48.6824 7.276C48.3366 7.71194 47.9068 8.07402 47.4185 8.34076C46.5376 8.79618 45.5647 9.04532 44.5734 9.06933C43.582 9.09333 42.5982 8.89157 41.6963 8.47932C40.8927 9.33833 41.253 10.0726 42.0566 10.5853C42.1893 10.6532 42.337 10.6866 42.4861 10.6823C43.636 10.6823 44.7999 10.5853 45.9498 10.5991C47.0998 10.613 48.042 10.6823 49.0811 10.7793C49.6957 10.9171 50.2518 11.2436 50.6717 11.7132C51.0915 12.1827 51.354 12.7717 51.4226 13.3979C51.4609 14.1652 51.3105 14.9303 50.9844 15.626C50.6583 16.3217 50.1665 16.9267 49.5522 17.3881C48.2739 18.4973 46.7081 19.2226 45.0354 19.4803C44.1146 19.6854 43.1616 19.7002 42.2348 19.5239C41.308 19.3476 40.4269 18.9838 39.6457 18.455C39.3884 18.302 39.1706 18.0907 39.0099 17.8382C38.8492 17.5856 38.75 17.2988 38.7203 17.001C38.6907 16.7031 38.7314 16.4024 38.8392 16.1231C38.947 15.8438 39.1189 15.5937 39.341 15.393L40.9204 13.8689L41.2252 13.5087C40.6484 13.2642 40.1385 12.885 39.7383 12.4029C39.3382 11.9207 39.0594 11.3497 38.9253 10.7377C38.7729 10.1281 39.1608 9.79556 39.4657 9.35219C39.7705 8.90883 40.3385 8.41005 40.7819 7.96668C40.5028 7.70439 40.2435 7.42189 40.006 7.1215C39.417 6.25244 39.1889 5.18844 39.3698 4.15429C39.5508 3.12014 40.1267 2.19684 40.9759 1.57946C41.6723 1.07046 42.4651 0.708482 43.3059 0.51555C44.1467 0.322617 45.018 0.302764 45.8667 0.4572C46.9197 0.609606 47.9727 0.817426 49.0257 0.969832C49.2069 0.964627 49.3836 0.912105 49.5383 0.817446L51.1871 0.166254C51.1871 0.166254 51.2979 0.0554204 51.3533 0L51.6997 0.0692586Z" fill="white"/>
<path d="M32.98 38.9467C32.9416 39.4678 32.8297 39.9809 32.6475 40.4708C32.3778 40.8174 32.0316 41.0972 31.6361 41.2882C30.4347 42.0075 29.0833 42.439 27.6874 42.549C26.3245 42.7427 24.9353 42.6194 23.6278 42.1888C22.8104 41.8998 22.1038 41.3624 21.6069 40.6519C21.11 39.9413 20.8477 39.0932 20.8568 38.2262C20.8568 30.0794 20.8568 21.9465 20.8568 13.7997V13.1762H13.9293V13.7027C13.9293 19.9513 13.9293 26.1723 13.9293 32.4486C13.9293 34.2359 13.6799 36.0094 13.5136 37.7829C13.5136 38.2955 13.3474 38.7943 13.2642 39.3069C13.2059 39.6969 13.0476 40.0652 12.8048 40.376C12.562 40.6867 12.243 40.9294 11.8787 41.0804C10.5704 41.7251 9.16704 42.1554 7.72221 42.355C6.71079 42.5074 5.68548 42.5906 4.6602 42.6876C4.58116 42.6898 4.50249 42.6762 4.42875 42.6476C4.35501 42.6191 4.28767 42.5761 4.2307 42.5213C3.99516 42.2026 3.80122 41.8424 3.56568 41.4545C4.56325 40.5262 5.54697 39.6117 6.51682 38.6834C7.01238 38.2816 7.47564 37.8415 7.90233 37.3672C8.1441 37.0036 8.28731 36.5835 8.31797 36.148C8.47508 34.8883 8.56296 33.6209 8.58122 32.3516C8.58122 26.1723 8.58122 19.979 8.58122 13.7858V13.2039C5.73883 12.9844 2.88572 13.4599 0.268158 14.5894C0.233964 14.4246 0.187646 14.2625 0.129598 14.1045C-0.272199 13.2039 0.337422 12.719 0.905481 12.2617C2.61874 10.8747 4.67921 9.98348 6.8632 9.68471C7.77966 9.53498 8.70575 9.45164 9.63422 9.43533C15.6612 9.43533 21.6881 9.43533 27.7151 9.43533C29.0401 9.42465 30.3599 9.26662 31.65 8.96422C32.4813 8.7841 33.3126 8.67328 34.1439 8.54858C34.4071 8.54858 34.6011 8.63173 34.5457 8.95039C34.3433 10.8427 33.6978 12.6607 32.6614 14.2569C32.4387 14.5096 32.1979 14.7458 31.9409 14.9635C31.0957 14.4786 30.2783 14.0214 29.4609 13.578C29.0439 13.3268 28.5614 13.2062 28.0754 13.2316C27.7013 13.2316 27.341 13.2316 26.9115 13.2316V13.8274C26.9115 21.42 26.9115 29.068 26.9115 36.6329C26.8974 36.8934 26.9644 37.152 27.1033 37.3728C27.2423 37.5937 27.4464 37.766 27.6874 37.866C28.624 38.3228 29.6312 38.6179 30.6663 38.7389C31.4006 38.8636 32.1349 38.9328 32.9523 39.0298" fill="white"/>
</svg>
