<?xml version="1.0" encoding="UTF-8" standalone="no"?>
<!-- Created with Inkscape (http://www.inkscape.org/) -->

<svg
   xmlns:dc="http://purl.org/dc/elements/1.1/"
   xmlns:cc="http://creativecommons.org/ns#"
   xmlns:rdf="http://www.w3.org/1999/02/22-rdf-syntax-ns#"
   xmlns:svg="http://www.w3.org/2000/svg"
   xmlns="http://www.w3.org/2000/svg"
   xmlns:sodipodi="http://sodipodi.sourceforge.net/DTD/sodipodi-0.dtd"
   xmlns:inkscape="http://www.inkscape.org/namespaces/inkscape"
   version="1.1"
   id="svg825"
   xml:space="preserve"
   width="4499.04"
   height="1269.844"
   viewBox="0 0 4499.04 1269.844"
   sodipodi:docname="logo.svg"
   inkscape:version="0.92.3 (2405546, 2018-03-11)"><metadata
     id="metadata831"><rdf:RDF><cc:Work
         rdf:about=""><dc:format>image/svg+xml</dc:format><dc:type
           rdf:resource="http://purl.org/dc/dcmitype/StillImage" /><dc:title></dc:title></cc:Work></rdf:RDF></metadata><defs
     id="defs829"><radialGradient
       fx="0"
       fy="0"
       cx="0"
       cy="0"
       r="1"
       gradientUnits="userSpaceOnUse"
       gradientTransform="matrix(2671.217,-861.48303,-861.48303,-2671.217,1198.8776,908.64453)"
       spreadMethod="pad"
       id="radialGradient853"><stop
         style="stop-opacity:1;stop-color:#2ba4db"
         offset="0"
         id="stop847" /><stop
         style="stop-opacity:1;stop-color:#015c82"
         offset="0.7394098"
         id="stop849" /><stop
         style="stop-opacity:1;stop-color:#015c82"
         offset="1"
         id="stop851" /></radialGradient><radialGradient
       fx="0"
       fy="0"
       cx="0"
       cy="0"
       r="1"
       gradientUnits="userSpaceOnUse"
       gradientTransform="matrix(2671.217,-861.48303,-861.48303,-2671.217,1198.8776,908.64453)"
       spreadMethod="pad"
       id="radialGradient875"><stop
         style="stop-opacity:1;stop-color:#2ba4db"
         offset="0"
         id="stop869" /><stop
         style="stop-opacity:1;stop-color:#015c82"
         offset="0.7394098"
         id="stop871" /><stop
         style="stop-opacity:1;stop-color:#015c82"
         offset="1"
         id="stop873" /></radialGradient><radialGradient
       fx="0"
       fy="0"
       cx="0"
       cy="0"
       r="1"
       gradientUnits="userSpaceOnUse"
       gradientTransform="matrix(2671.217,-861.48303,-861.48303,-2671.217,1198.8776,908.64453)"
       spreadMethod="pad"
       id="radialGradient897"><stop
         style="stop-opacity:1;stop-color:#2ba4db"
         offset="0"
         id="stop891" /><stop
         style="stop-opacity:1;stop-color:#015c82"
         offset="0.7394098"
         id="stop893" /><stop
         style="stop-opacity:1;stop-color:#015c82"
         offset="1"
         id="stop895" /></radialGradient><radialGradient
       fx="0"
       fy="0"
       cx="0"
       cy="0"
       r="1"
       gradientUnits="userSpaceOnUse"
       gradientTransform="matrix(2671.217,-861.48303,-861.48303,-2671.217,1198.8776,908.64453)"
       spreadMethod="pad"
       id="radialGradient919"><stop
         style="stop-opacity:1;stop-color:#2ba4db"
         offset="0"
         id="stop913" /><stop
         style="stop-opacity:1;stop-color:#015c82"
         offset="0.7394098"
         id="stop915" /><stop
         style="stop-opacity:1;stop-color:#015c82"
         offset="1"
         id="stop917" /></radialGradient><radialGradient
       fx="0"
       fy="0"
       cx="0"
       cy="0"
       r="1"
       gradientUnits="userSpaceOnUse"
       gradientTransform="matrix(2671.217,-861.48303,-861.48303,-2671.217,1198.8776,908.64453)"
       spreadMethod="pad"
       id="radialGradient941"><stop
         style="stop-opacity:1;stop-color:#2ba4db"
         offset="0"
         id="stop935" /><stop
         style="stop-opacity:1;stop-color:#015c82"
         offset="0.7394098"
         id="stop937" /><stop
         style="stop-opacity:1;stop-color:#015c82"
         offset="1"
         id="stop939" /></radialGradient><radialGradient
       fx="0"
       fy="0"
       cx="0"
       cy="0"
       r="1"
       gradientUnits="userSpaceOnUse"
       gradientTransform="matrix(2671.217,-861.48303,-861.48303,-2671.217,1198.8776,908.64453)"
       spreadMethod="pad"
       id="radialGradient963"><stop
         style="stop-opacity:1;stop-color:#2ba4db"
         offset="0"
         id="stop957" /><stop
         style="stop-opacity:1;stop-color:#015c82"
         offset="0.7394098"
         id="stop959" /><stop
         style="stop-opacity:1;stop-color:#015c82"
         offset="1"
         id="stop961" /></radialGradient><radialGradient
       fx="0"
       fy="0"
       cx="0"
       cy="0"
       r="1"
       gradientUnits="userSpaceOnUse"
       gradientTransform="matrix(2671.217,-861.48303,-861.48303,-2671.217,1198.8776,908.64453)"
       spreadMethod="pad"
       id="radialGradient985"><stop
         style="stop-opacity:1;stop-color:#2ba4db"
         offset="0"
         id="stop979" /><stop
         style="stop-opacity:1;stop-color:#015c82"
         offset="0.7394098"
         id="stop981" /><stop
         style="stop-opacity:1;stop-color:#015c82"
         offset="1"
         id="stop983" /></radialGradient><clipPath
       clipPathUnits="userSpaceOnUse"
       id="clipPath995"><path
         d="M 0,952.383 H 3374.277 V 0 H 0 Z"
         id="path993"
         inkscape:connector-curvature="0" /></clipPath><radialGradient
       fx="0"
       fy="0"
       cx="0"
       cy="0"
       r="1"
       gradientUnits="userSpaceOnUse"
       gradientTransform="matrix(-775.15186,-15.771145,-15.771145,775.15186,-35.387337,454.95419)"
       spreadMethod="pad"
       id="radialGradient1019"><stop
         style="stop-opacity:1;stop-color:#2ba4db"
         offset="0"
         id="stop1013" /><stop
         style="stop-opacity:1;stop-color:#015c82"
         offset="0.7394098"
         id="stop1015" /><stop
         style="stop-opacity:1;stop-color:#015c82"
         offset="1"
         id="stop1017" /></radialGradient><radialGradient
       fx="0"
       fy="0"
       cx="0"
       cy="0"
       r="1"
       gradientUnits="userSpaceOnUse"
       gradientTransform="matrix(-775.15155,-15.771138,-15.771138,775.15155,-35.387237,454.95474)"
       spreadMethod="pad"
       id="radialGradient1041"><stop
         style="stop-opacity:1;stop-color:#2ba4db"
         offset="0"
         id="stop1035" /><stop
         style="stop-opacity:1;stop-color:#015c82"
         offset="0.7394098"
         id="stop1037" /><stop
         style="stop-opacity:1;stop-color:#015c82"
         offset="1"
         id="stop1039" /></radialGradient><clipPath
       clipPathUnits="userSpaceOnUse"
       id="clipPath1051"><path
         d="M 0,952.383 H 3374.277 V 0 H 0 Z"
         id="path1049"
         inkscape:connector-curvature="0" /></clipPath><radialGradient
       fx="0"
       fy="0"
       cx="0"
       cy="0"
       r="1"
       gradientUnits="userSpaceOnUse"
       gradientTransform="matrix(-775.15393,-15.771187,-15.771187,775.15393,-35.387917,454.95395)"
       spreadMethod="pad"
       id="radialGradient1083"><stop
         style="stop-opacity:1;stop-color:#2ba4db"
         offset="0"
         id="stop1077" /><stop
         style="stop-opacity:1;stop-color:#015c82"
         offset="0.7394098"
         id="stop1079" /><stop
         style="stop-opacity:1;stop-color:#015c82"
         offset="1"
         id="stop1081" /></radialGradient><radialGradient
       fx="0"
       fy="0"
       cx="0"
       cy="0"
       r="1"
       gradientUnits="userSpaceOnUse"
       gradientTransform="matrix(-775.15192,-15.771146,-15.771146,775.15192,-35.387348,454.95325)"
       spreadMethod="pad"
       id="radialGradient1105"><stop
         style="stop-opacity:1;stop-color:#2ba4db"
         offset="0"
         id="stop1099" /><stop
         style="stop-opacity:1;stop-color:#015c82"
         offset="0.7394098"
         id="stop1101" /><stop
         style="stop-opacity:1;stop-color:#015c82"
         offset="1"
         id="stop1103" /></radialGradient><radialGradient
       fx="0"
       fy="0"
       cx="0"
       cy="0"
       r="1"
       gradientUnits="userSpaceOnUse"
       gradientTransform="matrix(-775.15314,-15.771171,-15.771171,775.15314,-35.387638,454.95331)"
       spreadMethod="pad"
       id="radialGradient1127"><stop
         style="stop-opacity:1;stop-color:#2ba4db"
         offset="0"
         id="stop1121" /><stop
         style="stop-opacity:1;stop-color:#015c82"
         offset="0.7394098"
         id="stop1123" /><stop
         style="stop-opacity:1;stop-color:#015c82"
         offset="1"
         id="stop1125" /></radialGradient><radialGradient
       fx="0"
       fy="0"
       cx="0"
       cy="0"
       r="1"
       gradientUnits="userSpaceOnUse"
       gradientTransform="matrix(-775.15521,-15.771213,-15.771213,775.15521,-35.386265,454.95514)"
       spreadMethod="pad"
       id="radialGradient1149"><stop
         style="stop-opacity:1;stop-color:#2ba4db"
         offset="0"
         id="stop1143" /><stop
         style="stop-opacity:1;stop-color:#015c82"
         offset="0.7394098"
         id="stop1145" /><stop
         style="stop-opacity:1;stop-color:#015c82"
         offset="1"
         id="stop1147" /></radialGradient><radialGradient
       fx="0"
       fy="0"
       cx="0"
       cy="0"
       r="1"
       gradientUnits="userSpaceOnUse"
       gradientTransform="matrix(-775.151,-15.771128,-15.771128,775.151,-35.386654,454.95416)"
       spreadMethod="pad"
       id="radialGradient1171"><stop
         style="stop-opacity:1;stop-color:#2ba4db"
         offset="0"
         id="stop1165" /><stop
         style="stop-opacity:1;stop-color:#015c82"
         offset="0.7394098"
         id="stop1167" /><stop
         style="stop-opacity:1;stop-color:#015c82"
         offset="1"
         id="stop1169" /></radialGradient><radialGradient
       fx="0"
       fy="0"
       cx="0"
       cy="0"
       r="1"
       gradientUnits="userSpaceOnUse"
       gradientTransform="matrix(-775.15173,-15.771142,-15.771142,775.15173,-35.386486,454.9541)"
       spreadMethod="pad"
       id="radialGradient1193"><stop
         style="stop-opacity:1;stop-color:#2ba4db"
         offset="0"
         id="stop1187" /><stop
         style="stop-opacity:1;stop-color:#015c82"
         offset="0.7394098"
         id="stop1189" /><stop
         style="stop-opacity:1;stop-color:#015c82"
         offset="1"
         id="stop1191" /></radialGradient><radialGradient
       fx="0"
       fy="0"
       cx="0"
       cy="0"
       r="1"
       gradientUnits="userSpaceOnUse"
       gradientTransform="matrix(-775.15131,-15.771133,-15.771133,775.15131,-35.386772,454.95398)"
       spreadMethod="pad"
       id="radialGradient1215"><stop
         style="stop-opacity:1;stop-color:#2ba4db"
         offset="0"
         id="stop1209" /><stop
         style="stop-opacity:1;stop-color:#015c82"
         offset="0.7394098"
         id="stop1211" /><stop
         style="stop-opacity:1;stop-color:#015c82"
         offset="1"
         id="stop1213" /></radialGradient><clipPath
       clipPathUnits="userSpaceOnUse"
       id="clipPath1225"><path
         d="M 0,952.383 H 3374.277 V 0 H 0 Z"
         id="path1223"
         inkscape:connector-curvature="0" /></clipPath></defs><sodipodi:namedview
     pagecolor="#ffffff"
     bordercolor="#666666"
     borderopacity="1"
     objecttolerance="10"
     gridtolerance="10"
     guidetolerance="10"
     inkscape:pageopacity="0"
     inkscape:pageshadow="2"
     inkscape:window-width="1920"
     inkscape:window-height="1017"
     id="namedview827"
     showgrid="false"
     inkscape:zoom="0.41478499"
     inkscape:cx="1504.5905"
     inkscape:cy="634.922"
     inkscape:window-x="-9"
     inkscape:window-y="-9"
     inkscape:window-maximized="1"
     inkscape:current-layer="g833" /><g
     id="g833"
     inkscape:groupmode="layer"
     inkscape:label="logo_polilab_logo_web"
     transform="matrix(1.3333333,0,0,-1.3333333,0,1269.844)"><g
       id="g835"><g
         id="g837"><g
           id="g843"><g
             id="g845"><path
               d="m 1076.636,624.245 c -23.308,0 -34.956,-11.656 -34.956,-34.96 v 0 -210.876 c 0,-8.273 2.903,-15.32 8.738,-21.144 v 0 c 5.823,-5.823 12.872,-8.739 21.142,-8.739 v 0 c 7.895,0 14.75,2.916 20.581,8.739 v 0 c 5.828,5.824 8.742,12.871 8.742,21.144 v 0 193.962 h 125.174 V 378.409 c 0,-8.273 2.907,-15.32 8.737,-21.144 v 0 c 5.824,-5.823 12.686,-8.739 20.581,-8.739 v 0 c 8.263,0 15.312,2.916 21.142,8.739 v 0 c 5.827,5.824 8.741,12.871 8.741,21.144 v 0 210.876 c 0,23.304 -11.658,34.96 -34.959,34.96 v 0 z"
               style="fill:url(#radialGradient853);stroke:none"
               id="path855"
               inkscape:connector-curvature="0" /></g></g></g></g><g
       id="g857"><g
         id="g859"><g
           id="g865"><g
             id="g867"><path
               d="m 1412.118,589.85 c -25.935,-27.444 -38.905,-61.274 -38.905,-101.492 v 0 c 0,-40.596 12.97,-74.621 38.905,-102.056 v 0 c 25.937,-27.443 59.576,-41.16 100.929,-41.16 v 0 c 41.723,0 75.556,13.717 101.491,41.16 v 0 c 25.937,27.435 38.908,61.46 38.908,102.056 v 0 c 0,40.218 -12.971,74.048 -38.908,101.492 v 0 c -25.935,27.436 -59.768,41.161 -101.491,41.161 v 0 c -41.353,0 -74.992,-13.725 -100.929,-41.161 m 43.416,-166.334 c -13.909,17.286 -20.863,38.906 -20.863,64.842 v 0 c 0,25.179 6.954,46.42 20.863,63.715 v 0 c 14.279,17.663 33.453,26.5 57.513,26.5 v 0 c 24.052,0 43.222,-8.837 57.513,-26.5 v 0 c 14.28,-17.674 21.427,-38.906 21.427,-63.715 v 0 c 0,-25.565 -7.147,-47.177 -21.427,-64.842 v 0 c -13.915,-17.294 -33.082,-25.937 -57.513,-25.937 v 0 c -24.439,0 -43.609,8.643 -57.513,25.937"
               style="fill:url(#radialGradient875);stroke:none"
               id="path877"
               inkscape:connector-curvature="0" /></g></g></g></g><g
       id="g879"><g
         id="g881"><g
           id="g887"><g
             id="g889"><path
               d="m 1802.863,624.245 c -22.181,0 -34.208,-11.278 -36.083,-33.831 v 0 l -2.257,-33.831 c -6.399,-89.466 -21.241,-139.648 -44.542,-150.545 v 0 c -10.912,-5.27 -16.351,-14.096 -16.351,-26.502 v 0 c 0,-8.651 2.901,-15.884 8.737,-21.708 v 0 c 5.823,-5.833 12.872,-8.739 21.142,-8.739 v 0 c 3.757,0 7.895,0.943 12.405,2.819 v 0 c 21.799,10.148 38.712,31.196 50.745,63.151 v 0 c 12.027,31.946 19.922,78.18 23.681,138.706 v 0 l 1.131,18.606 h 98.672 V 378.409 c 0,-8.273 2.906,-15.32 8.741,-21.144 v 0 c 5.82,-5.823 12.681,-8.739 20.58,-8.739 v 0 c 8.264,0 15.309,2.916 21.143,8.739 v 0 c 5.825,5.824 8.737,12.871 8.737,21.144 v 0 210.876 c 0,23.304 -11.654,34.96 -34.956,34.96 v 0 z"
               style="fill:url(#radialGradient897);stroke:none"
               id="path899"
               inkscape:connector-curvature="0" /></g></g></g></g><g
       id="g901"><g
         id="g903"><g
           id="g909"><g
             id="g911"><path
               d="M 2259.573,611.276 2143.42,440.995 v 156.748 c 0,8.266 -2.914,15.313 -8.741,21.145 v 0 c -5.83,5.823 -12.685,8.739 -20.581,8.739 v 0 c -8.269,0 -15.319,-2.916 -21.143,-8.739 v 0 c -5.833,-5.832 -8.736,-12.879 -8.736,-21.145 v 0 -213.696 c 0,-9.778 3.47,-18.139 10.429,-25.09 v 0 c 6.95,-6.962 15.311,-10.431 25.088,-10.431 v 0 c 13.157,0 23.119,5.259 29.888,15.786 v 0 l 118.971,175.92 V 378.409 c 0,-8.273 2.906,-15.32 8.737,-21.144 v 0 c 5.824,-5.823 12.686,-8.739 20.581,-8.739 v 0 c 8.263,0 15.312,2.916 21.143,8.739 v 0 c 5.828,5.824 8.74,12.871 8.74,21.144 v 0 212.005 c 0,10.148 -3.664,18.889 -10.994,26.218 v 0 c -7.329,7.33 -16.07,10.995 -26.218,10.995 v 0 c -13.912,0 -24.245,-5.453 -31.011,-16.351"
               style="fill:url(#radialGradient919);stroke:none"
               id="path921"
               inkscape:connector-curvature="0" /></g></g></g></g><g
       id="g923"><g
         id="g925"><g
           id="g931"><g
             id="g933"><path
               d="m 2499.764,624.245 c -22.183,0 -34.205,-11.278 -36.083,-33.831 v 0 l -2.257,-33.831 c -6.396,-89.466 -21.237,-139.648 -44.542,-150.545 v 0 c -10.907,-5.27 -16.352,-14.096 -16.352,-26.502 v 0 c 0,-8.651 2.907,-15.884 8.741,-21.708 v 0 c 5.821,-5.833 12.873,-8.739 21.142,-8.739 v 0 c 3.753,0 7.892,0.943 12.407,2.819 v 0 c 21.795,10.148 38.71,31.196 50.745,63.151 v 0 c 12.026,31.946 19.917,78.18 23.68,138.706 v 0 l 1.13,18.606 h 98.668 V 378.409 c 0,-8.273 2.91,-15.32 8.741,-21.144 v 0 c 5.824,-5.823 12.687,-8.739 20.581,-8.739 v 0 c 8.263,0 15.312,2.916 21.147,8.739 v 0 c 5.819,5.824 8.737,12.871 8.737,21.144 v 0 210.876 c 0,23.304 -11.654,34.96 -34.956,34.96 v 0 z"
               style="fill:url(#radialGradient941);stroke:none"
               id="path943"
               inkscape:connector-curvature="0" /></g></g></g></g><g
       id="g945"><g
         id="g947"><g
           id="g953"><g
             id="g955"><path
               d="m 2792.96,598.872 c -6.768,-4.141 -10.148,-10.529 -10.148,-19.171 v 0 c 0,-6.396 2.345,-11.938 7.048,-16.634 v 0 c 4.697,-4.704 10.236,-7.047 16.632,-7.047 v 0 c 5.262,0 9.769,1.312 13.533,3.947 v 0 c 19.917,13.531 41.162,20.297 63.712,20.297 v 0 c 19.173,0 34.584,-4.511 46.238,-13.533 v 0 c 11.647,-9.019 17.478,-21.425 17.478,-37.212 v 0 -40.598 c -20.3,23.304 -49.619,34.96 -87.959,34.96 v 0 c -25.937,0 -48.206,-7.709 -66.817,-23.119 v 0 c -18.606,-15.417 -27.908,-37.213 -27.908,-65.404 v 0 c 0,-27.445 9.488,-49.336 28.475,-65.689 v 0 c 18.977,-16.351 41.061,-24.527 66.25,-24.527 v 0 c 37.583,0 66.904,12.026 87.959,36.086 v 0 -2.819 c 0,-8.273 2.907,-15.32 8.741,-21.144 v 0 c 5.82,-5.823 12.683,-8.739 20.581,-8.739 v 0 c 8.263,0 15.308,2.916 21.142,8.739 v 0 c 5.824,5.824 8.737,12.871 8.737,21.144 v 0 153.928 c 0,33.074 -10.144,57.794 -30.445,74.145 v 0 c -20.299,16.353 -47.926,24.529 -82.886,24.529 v 0 c -37.97,0 -71.424,-10.714 -100.363,-32.139 m 47.927,-199.883 c -10.907,8.828 -16.351,20.581 -16.351,35.239 v 0 c 0,14.661 5.444,26.502 16.351,35.523 v 0 c 10.9,9.022 24.807,13.533 41.727,13.533 v 0 c 29.318,0 50.927,-9.401 64.839,-28.194 v 0 -41.159 c -13.912,-18.8 -35.521,-28.192 -64.839,-28.192 v 0 c -16.92,0 -30.827,4.414 -41.727,13.25"
               style="fill:url(#radialGradient963);stroke:none"
               id="path965"
               inkscape:connector-curvature="0" /></g></g></g></g><g
       id="g967"><g
         id="g969"><g
           id="g975"><g
             id="g977"><path
               d="m 3314.51,729.682 -34.956,-5.074 c -68.788,-9.779 -116.717,-31.108 -143.779,-63.996 v 0 c -27.064,-32.896 -40.597,-81.105 -40.597,-144.626 v 0 c 0,-52.251 12.405,-93.791 37.213,-124.609 v 0 c 24.808,-30.826 58.823,-46.235 102.056,-46.235 v 0 c 42.096,0 75.925,13.815 101.49,41.443 v 0 c 25.558,27.628 38.339,61.739 38.339,102.336 v 0 c 0,36.087 -12.12,66.904 -36.362,92.471 v 0 c -24.25,25.559 -54.975,38.342 -92.192,38.342 v 0 c -21.428,0 -41.637,-4.607 -60.613,-13.815 v 0 c -18.984,-9.215 -34.11,-22.464 -45.389,-39.751 v 0 c 4.883,29.69 17.565,52.904 38.059,69.634 v 0 c 20.487,16.723 51.398,28.281 92.753,34.677 v 0 l 43.978,6.766 c 21.427,3.006 32.141,12.59 32.141,28.756 v 0 c 0,16.159 -8.271,24.245 -24.811,24.245 v 0 c -3.76,0 -6.199,-0.194 -7.33,-0.564 M 3176.934,424.081 c -13.908,17.284 -20.863,39.089 -20.863,65.406 v 0 c 0,24.807 6.955,45.855 20.863,63.148 v 0 c 13.903,17.287 33.074,25.938 57.513,25.938 v 0 c 24.431,0 43.598,-8.651 57.513,-25.938 v 0 c 14.28,-17.672 21.427,-38.718 21.427,-63.148 v 0 c 0,-25.938 -7.147,-47.743 -21.427,-65.406 v 0 c -14.291,-17.673 -33.46,-26.502 -57.513,-26.502 v 0 c -24.06,0 -43.233,8.829 -57.513,26.502"
               style="fill:url(#radialGradient985);stroke:none"
               id="path987"
               inkscape:connector-curvature="0" /></g></g></g></g><g
       id="g989"><g
         id="g991"
         clip-path="url(#clipPath995)"><g
           id="g997"
           transform="translate(425.3413,390.176)"><path
             d="M 0,0 C 11.17,90.529 128.524,121.938 181.983,48.705 227.758,-14.01 188.094,-110.521 93.154,-110.864 16.222,-103.63 -4.815,-39.025 0,0"
             style="fill:#2da7de;fill-opacity:1;fill-rule:nonzero;stroke:none"
             id="path999"
             inkscape:connector-curvature="0" /></g></g></g><g
       id="g1001"><g
         id="g1003"><g
           id="g1009"><g
             id="g1011"><path
               d="m 161.619,827.526 c -12.057,-12.389 -18.294,-21.415 -21.405,-26.801 v 0 c -4.024,-6.976 -11.289,-22.643 8.101,-17.524 v 0 c 41.059,15.525 94.813,80.289 92.725,93.474 v 0 c -0.292,1.844 -1.673,2.696 -3.917,2.696 v 0 c -12.042,-10e-4 -48.915,-24.527 -75.504,-51.845"
               style="fill:url(#radialGradient1019);stroke:none"
               id="path1021"
               inkscape:connector-curvature="0" /></g></g></g></g><g
       id="g1023"><g
         id="g1025"><g
           id="g1031"><g
             id="g1033"><path
               d="m 192.714,99.664 c 0.025,-4.665 17.599,-17.069 22.988,-20.76 v 0 c 1.64,-1.127 3.849,-2.596 5.513,-3.687 v 0 L 240.02,63.619 c 19.957,-11.496 23.641,-13.217 52.333,-26.621 v 0 l 1.562,-0.679 c 0.002,0.016 0.007,0.032 0.011,0.046 v 0 c -24.733,15.76 -47.512,34.35 -72.388,49.906 v 0 c -14.604,9.131 -23.826,13.737 -27.5,13.737 v 0 c -0.579,0 -1.021,-0.115 -1.324,-0.344"
               style="fill:url(#radialGradient1041);stroke:none"
               id="path1043"
               inkscape:connector-curvature="0" /></g></g></g></g><g
       id="g1045"><g
         id="g1047"
         clip-path="url(#clipPath1051)"><g
           id="g1053"
           transform="translate(432.9351,871.3132)"><path
             d="M 0,0 C 13.935,50.936 107.245,55.028 136.772,5.996 152.753,-20.538 136.36,-59.163 73.354,-61.792 12.401,-59.545 -6.448,-23.595 0,0"
             style="fill:#2da7de;fill-opacity:1;fill-rule:nonzero;stroke:none"
             id="path1055"
             inkscape:connector-curvature="0" /></g><g
           id="g1057"
           transform="translate(416.0474,23.4352)"><path
             d="m 0,0 c 0.291,25.539 74.657,31.03 97.032,7.162 15.03,-16.039 -12.07,-32.264 -50.875,-30.459 -1.158,0.053 -2.704,0.168 -3.86,0.24 C 0.972,-19.164 -0.021,-1.95 0,0"
             style="fill:#2da7de;fill-opacity:1;fill-rule:nonzero;stroke:none"
             id="path1059"
             inkscape:connector-curvature="0" /></g><g
           id="g1061"
           transform="translate(674.5611,377.1525)"><path
             d="M 0,0 C 10.281,54.021 74.165,77.412 103.579,37.919 131.075,1.009 104.79,-65.511 49.419,-68.497 9.231,-66.581 -6.038,-31.775 0,0"
             style="fill:#2da7de;fill-opacity:1;fill-rule:nonzero;stroke:none"
             id="path1063"
             inkscape:connector-curvature="0" /></g></g></g><g
       id="g1065"><g
         id="g1067"><g
           id="g1073"><g
             id="g1075"><path
               d="m 685.079,708.076 c 2.428,-32.598 32.213,-70.228 72.683,-74.285 v 0 c 1.299,-0.043 3.033,-0.155 4.33,-0.146 v 0 c 48.326,0.281 55.166,60.154 11.443,100.102 v 0 c -15.666,14.311 -32.877,20.93 -47.932,20.929 v 0 c -24.135,0 -42.728,-17.009 -40.524,-46.6"
               style="fill:url(#radialGradient1083);stroke:none"
               id="path1085"
               inkscape:connector-curvature="0" /></g></g></g></g><g
       id="g1087"><g
         id="g1089"><g
           id="g1095"><g
             id="g1097"><path
               d="M 627.104,107.679 C 615.716,88.444 619.907,68.714 650.1,70.039 v 0 c 39.931,3.599 84.378,41.852 76.71,66.019 v 0 c -3.07,9.68 -12.702,13.966 -25.012,13.966 v 0 c -24.541,-0.002 -59.716,-17.041 -74.694,-42.345"
               style="fill:url(#radialGradient1105);stroke:none"
               id="path1107"
               inkscape:connector-curvature="0" /></g></g></g></g><g
       id="g1109"><g
         id="g1111"><g
           id="g1117"><g
             id="g1119"><path
               d="m 373.171,940.547 c -4.869,-2.563 -6.687,-4.619 -7.326,-5.622 v 0 c -1.728,-2.669 -0.456,-7.162 16.749,-5.008 v 0 c 21.483,3.268 40.521,13.696 42.871,19.131 v 0 c 1.004,2.319 -1.412,3.256 -5.729,3.256 v 0 c -11.679,-10e-4 -37.255,-6.859 -46.565,-11.757"
               style="fill:url(#radialGradient1127);stroke:none"
               id="path1129"
               inkscape:connector-curvature="0" /></g></g></g></g><g
       id="g1131"><g
         id="g1133"><g
           id="g1139"><g
             id="g1141"><path
               d="m 134.639,146.581 c 0.031,-0.032 0.067,-0.071 0.093,-0.104 v 0 c 9.363,-9.563 22.59,-21.566 32.382,-30.693 v 0 l 6.187,-5.251 c -16.131,13.786 -24.083,23.518 -23.621,28.939 v 0 c 11.748,9.228 55.453,-24.23 151.216,-97.536 v 0 c 22.066,-16.892 51.237,-25.397 62.76,-28.269 v 0 C 373.974,11.31 378.163,11.354 381.9,12.23 v 0 l 0.181,0.043 1.242,0.587 c 1.594,1.007 1.836,1.76 2.373,3.408 v 0 l 0.021,1.579 c -0.315,2.213 -0.866,3.314 -1.87,5.308 v 0 l -0.041,0.111 c -0.005,0 -0.005,0.004 -0.343,0.58 v 0 c -1.397,2.148 -1.795,2.66 -3.235,4.471 v 0 c -1.611,1.922 -2.61,2.971 -5.358,5.619 v 0 c -5.74,4.895 -5.74,4.895 -6.599,5.573 v 0 l -0.515,0.358 -1.342,0.979 c -2.531,1.835 -3.79,2.731 -7.093,4.861 v 0 c -6.769,4.33 -13.343,7.443 -16.151,8.77 v 0 l -0.039,0.025 c -27.072,14.204 -57.924,19.866 -83.718,36.97 v 0 c -12.552,8.326 -41.941,27.818 -67.367,63.234 v 0 c -19.525,27.198 -31.271,59.249 -53.069,85.03 v 0 c -13.251,15.673 -33.812,33.025 -47.644,34.092 v 0 c -0.658,0.05 -1.286,0.075 -1.893,0.075 v 0 c -40.828,-0.009 33.38,-113.351 45.199,-127.322"
               style="fill:url(#radialGradient1149);stroke:none"
               id="path1151"
               inkscape:connector-curvature="0" /></g></g></g></g><g
       id="g1153"><g
         id="g1155"><g
           id="g1161"><g
             id="g1163"><path
               d="M 244.313,736.606 C 227.2,726.467 200.614,696.123 195.214,665.518 v 0 c -3.618,-20.516 -39.258,-94.716 -76.359,-130.195 v 0 c -13.946,-13.337 -61.081,-52.641 -82.136,1.409 v 0 C 14.443,593.928 54.94,643.905 55.292,698.504 v 0 c -0.604,-0.961 -1.411,-2.247 -2.011,-3.209 v 0 C 46.697,682.258 38.996,664.358 33.098,650.999 v 0 C 23.634,627.011 23.634,627.011 10.82,577.517 v 0 l -1.739,-8.434 c -0.554,-3.042 -0.554,-3.042 1.375,-8.387 v 0 c 4.478,-12.412 15.666,-78.591 22.323,-150.064 v 0 c 0.101,-0.89 7.808,-93.926 1.419,-109.436 v 0 c 5.121,-12.465 13.007,-28.625 18.705,-40.833 v 0 c 18.055,-33.476 22.211,-39.197 49.243,-76.442 v 0 c -5.151,8.151 -5.151,8.151 -6.462,10.296 v 0 C 11.264,332.216 83.948,322.312 84.733,322.125 v 0 C 126.543,312.19 197.868,219.423 222.27,164.137 v 0 c 0.222,-0.494 23.682,-50.484 79.377,-63.892 v 0 c 14.16,-2.465 26.246,-2.232 39.168,6.918 v 0 l 0.437,0.293 c 1.05,0.952 2.416,2.264 3.437,3.249 v 0 c 4.814,5.091 6.561,9.702 8.243,14.164 v 0 c 0.461,1.618 0.979,3.808 1.346,5.455 v 0 c 1.163,7.146 0.805,10.742 0.275,16.183 v 0 l -0.01,0.317 c 0,0.006 0.003,0.011 -0.543,3.197 v 0 c -1.105,4.988 -1.228,5.387 -2.789,10.293 v 0 c -0.004,0.012 -0.004,0.027 -0.025,0.167 v 0 c -2.521,6.578 -3.477,8.468 -6.14,13.441 v 0 c -3.34,5.884 -4.717,7.811 -8.201,12.515 v 0 l -0.633,0.754 -1.729,2.074 c -4.797,5.59 -5.402,6.244 -9.217,9.993 v 0 c -9.183,8.792 -16.875,13.514 -21.468,16.34 v 0 l -0.08,0.047 c -2.87,2.098 -17.788,9.763 -29.173,12.205 v 0 c -24.527,5.267 -62.075,20.845 -101.666,65.158 v 0 c -4.602,5.152 -45.039,52.354 -47.323,122.053 v 0 c -5.218,95.994 84.47,165.765 131.34,164.096 v 0 c 40.247,-1.433 92.923,42.314 97.022,95.418 v 0 c 3.382,43.821 -20.99,77.513 -60.079,77.509 v 0 c -14.666,-10e-4 -31.408,-4.746 -49.526,-15.478"
               style="fill:url(#radialGradient1171);stroke:none"
               id="path1173"
               inkscape:connector-curvature="0" /></g></g></g></g><g
       id="g1175"><g
         id="g1177"><g
           id="g1183"><g
             id="g1185"><path
               d="M 0.399,492.001 C 0.168,484.456 0.004,479.074 0,474.014 v 0 -0.366 c 0.01,-12.449 1.011,-23.191 4.426,-59.816 v 0 c 3.022,-18.672 8.333,-43.354 12.605,-61.781 v 0 c 0.371,-0.326 0.371,-0.326 1.177,-1.701 v 0 C 24.207,357.849 8.53,507.087 1.597,508.451 v 0 c -0.133,0.911 -0.237,2.136 -0.2,3.051 v 0 z"
               style="fill:url(#radialGradient1193);stroke:none"
               id="path1195"
               inkscape:connector-curvature="0" /></g></g></g></g><g
       id="g1197"><g
         id="g1199"><g
           id="g1205"><g
             id="g1207"><path
               d="M 263.198,853.419 C 252.171,834.758 154.041,729.452 110.696,729.7 v 0 c -24.105,0.136 -15.117,42.378 46.693,100.456 v 0 c -34.897,-31.962 -56.291,-60.887 -75.166,-86.41 v 0 C 72.566,698.62 50.271,656.942 45.937,610.372 v 0 c -1.1,-11.883 -1.403,-40.124 19.626,-45.73 v 0 c 24.117,5.808 30.598,7.368 50.807,36.151 v 0 c 19.023,27.088 23.476,60.261 37.397,89.48 v 0 c 39.332,82.568 125.077,116.317 140.485,117.313 v 0 c 13.49,0.877 43.076,8.948 68.372,33.64 v 0 c 32.569,31.788 23.381,61.953 0.136,64.804 v 0 c -2.451,0.301 -4.925,0.444 -7.426,0.444 v 0 c -37.903,-0.004 -80.323,-33.065 -92.136,-53.055"
               style="fill:url(#radialGradient1215);stroke:none"
               id="path1217"
               inkscape:connector-curvature="0" /></g></g></g></g><g
       id="g1219"><g
         id="g1221"
         clip-path="url(#clipPath1225)"><g
           id="g1227"
           transform="translate(164.4048,390.9582)"><path
             d="m 0,0 c -0.613,28.228 -1.446,66.889 30.99,93.371 22.232,18.145 39.985,18.163 44.9,17.734 8.367,-0.727 52.646,-2.213 102.702,40.001 65.471,55.218 79.847,124.236 79.847,124.803 -0.19,22.63 7.552,54.714 45.531,79.074 28.69,18.406 80.018,18.974 116.254,-11.932 C 481.529,290.765 459.89,193.5 363.763,184.068 201.459,168.138 106.036,-16.204 242.547,-135.697 c 36.565,-32.006 79.641,-46.589 107.754,-49.57 21.831,-2.307 43.764,-15.566 50.586,-23.847 42.595,-51.737 -15.094,-88.404 -21.809,-92.417 l -0.939,-0.506 c -1.772,-0.919 -4.14,-2.133 -5.928,-3.012 -6.402,-2.772 -12.453,-5.397 -22.486,-7.464 -4.496,-0.854 -4.496,-0.854 -7.312,-1.237 -7.521,-0.875 -11.068,-1.01 -18.998,-0.717 -0.057,0.003 -0.061,0.004 -0.064,0.004 -5.78,0.514 -7.522,0.671 -14.18,1.972 -4.326,1.074 -8.063,2.006 -13.094,3.996 -4.819,2.001 -6.447,2.673 -11.785,5.682 l -0.206,0.146 -2.335,1.505 c -3.618,2.391 -4.592,3.031 -7.944,5.768 -3.997,3.637 -8.974,8.16 -13.36,15.19 l -0.037,0.089 c -4.985,8.264 -7.894,15.906 -8.64,22.699 -5.636,51.007 -64.488,136.536 -156.167,157.762 C 8.235,-79.427 0.339,-18.268 0,0"
             style="fill:#2da7de;fill-opacity:1;fill-rule:nonzero;stroke:none"
             id="path1229"
             inkscape:connector-curvature="0" /></g></g></g></g></svg>