<svg xmlns="http://www.w3.org/2000/svg" xmlns:xlink="http://www.w3.org/1999/xlink"><defs><clipPath id="clip-path"><path fill="none" d="M0 0h1364v408H0z"/></clipPath><style>.cls-3{opacity:.1}</style><clipPath id="clip0"><path fill="#fff" d="M0 0h44.005v44H0z"/></clipPath></defs><symbol id="arrow-min"><path d="M7.515.515l-.89.89 3.964 3.965H0v1.26H10.59l-3.965 3.964.891.891L13 6 7.515.515z"/></symbol><symbol id="arrow"><path d="M30 13.478H2M13.586 24.728L2.272 13.414M13.586 2L2.272 13.314"/></symbol><symbol id="arrow_down"><path stroke="#7E2E7A" d="M.354.646l4 4M7.646.646l-4 4"/></symbol><symbol id="arrow_min"><path d="M7.515.515l-.89.89 3.964 3.965H0v1.26H10.59l-3.965 3.964.891.891L13 6 7.515.515z" fill="#852E81"/></symbol><symbol id="aut"><path d="M1.096 0h8.312a.594.594 0 010 1.187H1.69v16.625h7.718a.594.594 0 010 1.188H1.096a.594.594 0 01-.594-.594V.594C.502.266.768 0 1.096 0z"/><path d="M14.526 13.031a.604.604 0 000 .803.49.49 0 00.735 0L18.849 9.9a.609.609 0 000-.803l-3.588-3.932a.49.49 0 00-.736 0 .604.604 0 000 .803l2.705 2.963H6.52c-.287 0-.52.254-.52.568 0 .313.233.567.52.567h10.71l-2.704 2.964z"/></symbol><symbol id="blobs-01" viewBox="0 0 1366 365"><g clip-path="url(#clip-path)" id="Layer_1-2" data-name="Layer 1"><path d="M467.24-53c-2.48 84.82-40.88 154.13-92.89 198.46s-116.8 66.22-182.63 81.35S58 250.91-5.79 271.92c-70.46 23.22-138.62 61.39-217.31 47.39-68.76-12.23-135.56-62.78-199.33-111.88-29.83-23-64.79-56.2-64.05-94.61.76-38.8 37.1-50.19 67.43-56.09C-329.51 39.3-244.68 7.66-160-23.9l547.8-204.46c56.95 35.24 99.35 115.6 98.27 186.2z"/><path d="M1109.5-157.88c-2.28 77.63-37.42 141.07-85 181.63S917.58 84.36 857.33 98.22s-122.41 22-180.77 41.27c-64.49 21.25-126.86 56.19-198.89 43.38-62.93-11.2-124.06-57.46-182.43-102.4-27.3-21-59.3-51.44-58.62-86.59.69-35.51 33.95-45.94 61.71-51.34 81.95-15.95 159.6-44.91 237-73.79l501.46-187.14c52.12 32.26 90.93 105.8 89.94 170.42z"/><path d="M808.15-106.94c131-42.21 266.74-44.56 400.24-46.55 41.42-.61 84.52-.86 120.13 17.91 38.44 20.26 63 60.28 78.84 102.39s24.31 87.47 39.39 129.93c45.46 128 148.86 225.31 178.72 359.61 3.79 17 5.67 37.19-5.62 51.75-10.52 13.59-29.4 17.08-44.4 12.76s-27.08-14.83-38.79-25a3411.34 3411.34 0 00-479.83-349.46C965.33 91.25 866 34.76 822.38-66.37z" fill="#7aaba8" opacity=".18"/></g></symbol><symbol id="border-bottom" viewBox="0 0 1536 153.6"><path d="M1537.236 27.522s-100.702 132.446-284.502 47.32c-185.832-86.068-195.112 98.47-408.492-12.457-217.364-112.997-274.73 98.214-466.678-1.767-191.95-99.982-184.367 44.128-376.345-.191l.04-76.8 1537.835-5.345z" class="wv-2 medium svelte-1iiwkit" data-name="Layer 3"/></symbol><symbol id="border-footer" viewBox="0 0 100 100" preserveAspectRatio="none"><path d="M118.5 104.625L77.546 49.271l-99.373 52.925" fill="#27363b"/><path d="M20.19 79.752l80.365.328-.117-80.822z" fill="#00b9b5"/></symbol><symbol id="border-footer1" viewBox="0 0 100 100" preserveAspectRatio="none"><path d="M118.5 104.625L77.546 49.271l-99.373 52.925" fill="#27363b"/><path d="M20.19 79.752l80.365.328-.117-80.822z" fill="#00b9b5"/><path opacity=".907" fill="#f5f5f5" stroke="#000" stroke-dasharray="1.99937008,3.49889764000000003" stroke-opacity=".007" d="M-2.427-.364h109.223v105.097H-2.427z"/></symbol><symbol id="border" viewBox="0 0 100 100" preserveAspectRatio="none"><path d="M100 100V10L0 100" fill="#00b9b5"/><path d="M30 73l70.05-47.266L100 10z" fill="#2b7a77"/></symbol><symbol id="callback"><path d="M1.888 14.455l-.114.911a.75.75 0 01-.834.65c-.378-.047-.687-.356-.65-.833l.342-2.74a.75.75 0 01.83-.651l2.777.338a.747.747 0 11-.184 1.48l-1.032-.125a7.446 7.446 0 008.291 2.656c3.068-.988 5.173-3.89 5.18-7.097 0-.474.316-.775.727-.786.412-.007.764.287.764.786 0 3.85-2.53 7.336-6.215 8.519a8.924 8.924 0 01-9.882-3.108zM13.746 5.866a.747.747 0 11.184-1.48l1.032.125a7.446 7.446 0 00-8.29-2.656c-3.068.988-5.173 3.89-5.18 7.097 0 .474-.316.775-.728.786C.353 9.746 0 9.452 0 8.952-.004 5.106 2.527 1.62 6.212.437A8.932 8.932 0 0116.1 3.545l.114-.911a.75.75 0 01.834-.65c.378.047.687.356.65.833l-.342 2.74a.75.75 0 01-.83.651l-2.78-.342z"/></symbol><symbol id="china" viewBox="-49 141 512 512"><style>.st1{fill:#ffda44}</style><circle cx="207" cy="397" r="256" fill="#d80027"/><path class="st1" d="M91.1 296.8l22.1 68h71.5l-57.8 42.1 22.1 68-57.9-42-57.9 42 22.2-68-57.9-42.1H69zM254.5 537.5l-16.9-20.8-25 9.7 14.5-22.5-16.9-20.9 25.9 6.9 14.6-22.5 1.4 26.8 26 6.9-25.1 9.6zM288.1 476.5l8-25.6-21.9-15.5 26.8-.4 7.9-25.6 8.7 25.4 26.8-.3-21.5 16 8.6 25.4-21.9-15.5zM333.4 328.9L321.6 353l19.2 18.7-26.5-3.8-11.8 24-4.6-26.4-26.6-3.8 23.8-12.5-4.6-26.5 19.2 18.7zM255.2 255.9l-2 26.7 24.9 10.1-26.1 6.4-1.9 26.8-14.1-22.8-26.1 6.4 17.3-20.5-14.2-22.7 24.9 10.1z"/></symbol><symbol id="close" viewBox="0 0 512.001 512.001"><path d="M284.286 256.002L506.143 34.144c7.811-7.811 7.811-20.475 0-28.285-7.811-7.81-20.475-7.811-28.285 0L256 227.717 34.143 5.859c-7.811-7.811-20.475-7.811-28.285 0-7.81 7.811-7.811 20.475 0 28.285l221.857 221.857L5.858 477.859c-7.811 7.811-7.811 20.475 0 28.285a19.938 19.938 0 0014.143 5.857 19.94 19.94 0 0014.143-5.857L256 284.287l221.857 221.857c3.905 3.905 9.024 5.857 14.143 5.857s10.237-1.952 14.143-5.857c7.811-7.811 7.811-20.475 0-28.285L284.286 256.002z"/></symbol><symbol id="divider"><path d="M0 6c140 0 140 0 150-6 10 6 10 6 150 6-140 0-140 0-150 6-10-6-10-6-150-6z" fill="#00b9b5"/></symbol><symbol id="docs"><path d="M8.066 17.6H26.4a.733.733 0 100-1.467H8.066a.733.733 0 100 1.467zM8.066 11.734h7.332a.734.734 0 000-1.467H8.067a.734.734 0 000 1.467zM8.066 23.467H26.4a.734.734 0 000-1.467H8.066a.734.734 0 000 1.467zM20.532 27.867H8.066a.733.733 0 000 1.467h12.466a.733.733 0 100-1.467zM18.332 33.733H8.066a.734.734 0 000 1.467h10.266a.734.734 0 000-1.467z" fill="#232020"/><path d="M34.467 25.2V10.7L23.77 0H0v44h32.267a9.528 9.528 0 002.2-18.8zM24.2 2.5l7.763 7.763H24.2V2.5zm2.991 40.03H1.467V1.467h21.266v10.266H33v13.233a8.774 8.774 0 00-.733-.032 9.544 9.544 0 00-9.533 9.533 9.59 9.59 0 00.064 1.068c.032.28.072.557.127.829l.022.1c.053.248.117.491.188.732.018.06.035.121.054.18.083.258.176.511.279.76l.062.139a9.2 9.2 0 00.307.637l.078.15c.128.233.266.46.414.68.034.051.069.1.1.149.133.193.274.382.422.565.028.034.054.07.083.1a9.848 9.848 0 001.23 1.229c.017.015.033.03.051.044a9.933 9.933 0 00.807.592c.054.036.112.079.169.112v-.003zm5.076 0a8.068 8.068 0 11.679-16.099c.224.019.434.048.667.087l.325.054a8.067 8.067 0 01-1.671 15.957v.001z" fill="#232020"/><path d="M36.067 30.382l-4.1 5.9-2.9-2.377a.733.733 0 00-.252-.135c-.092-.028-.189-.037-.285-.028a.733.733 0 00-.63.517.734.734 0 00.237.78l3.51 2.88a.735.735 0 001.065-.147l4.555-6.552a.734.734 0 00-1.2-.838z" fill="#232020"/></symbol><symbol id="edit-close"><path stroke="#7E2E84" d="M.5.5h43v43H.5z"/><path d="M34 13.216L32.784 12 23 21.784 13.216 12 12 13.216 21.784 23 12 32.784 13.216 34 23 24.216 32.784 34 34 32.784 24.216 23 34 13.216z" fill="#7E2E84"/></symbol><symbol id="edit"><path d="M31.577 12.424a4.853 4.853 0 00-6.868 0L12.117 25.012a.63.63 0 00-.178.36l-.933 6.91a.627.627 0 00.178.53.64.64 0 00.445.189.512.512 0 00.084 0l4.163-.563a.639.639 0 00-.168-1.266l-3.338.45.652-4.82 5.073 5.074a.62.62 0 00.89 0l12.592-12.584a4.85 4.85 0 000-6.868zm-6.625 1.548l2.114 2.114-11.49 11.486-2.114-2.11 11.49-11.49zm-6.408 16.567l-2.068-2.067 11.49-11.49 2.067 2.067-11.49 11.49zm12.372-12.4l-5.06-5.054a3.593 3.593 0 015.059 5.058v-.004z" fill="#7E2E84"/><path stroke="#7E2E84" d="M.5.5h43v43H.5z"/></symbol><symbol id="en" viewBox="0 0 512 512"><circle cx="256" cy="256" r="256" fill="#f0f0f0"/><g fill="#0052b4"><path d="M52.92 100.142c-20.109 26.163-35.272 56.318-44.101 89.077h133.178L52.92 100.142zM503.181 189.219c-8.829-32.758-23.993-62.913-44.101-89.076l-89.075 89.076h133.176zM8.819 322.784c8.83 32.758 23.993 62.913 44.101 89.075l89.074-89.075H8.819zM411.858 52.921c-26.163-20.109-56.317-35.272-89.076-44.102v133.177l89.076-89.075zM100.142 459.079c26.163 20.109 56.318 35.272 89.076 44.102V370.005l-89.076 89.074zM189.217 8.819c-32.758 8.83-62.913 23.993-89.075 44.101l89.075 89.075V8.819zM322.783 503.181c32.758-8.83 62.913-23.993 89.075-44.101l-89.075-89.075v133.176zM370.005 322.784l89.075 89.076c20.108-26.162 35.272-56.318 44.101-89.076H370.005z"/></g><g fill="#d80027"><path d="M509.833 222.609H289.392V2.167A258.556 258.556 0 00256 0c-11.319 0-22.461.744-33.391 2.167v220.441H2.167A258.556 258.556 0 000 256c0 11.319.744 22.461 2.167 33.391h220.441v220.442a258.35 258.35 0 0066.783 0V289.392h220.442A258.533 258.533 0 00512 256c0-11.317-.744-22.461-2.167-33.391z"/><path d="M322.783 322.784L437.019 437.02a256.636 256.636 0 0015.048-16.435l-97.802-97.802h-31.482v.001zM189.217 322.784h-.002L74.98 437.019a256.636 256.636 0 0016.435 15.048l97.802-97.804v-31.479zM189.217 189.219v-.002L74.981 74.98a256.636 256.636 0 00-15.048 16.435l97.803 97.803h31.481zM322.783 189.219L437.02 74.981a256.328 256.328 0 00-16.435-15.047l-97.802 97.803v31.482z"/></g></symbol><symbol id="fb"><path d="M6.875 7.626v-2.75c0-.759.616-1.375 1.375-1.375h1.375V.064h-2.75A4.125 4.125 0 002.75 4.189v3.437H0v3.438h2.75v11h4.125v-11h2.75L11 7.626H6.875z" fill="#fff"/></symbol><symbol id="flag_rf"><path fill="#F0E9F0" d="M0 0h18v4H0z"/><path fill="#265DA7" d="M0 4h18v4H0z"/><path fill="#CF3A3A" d="M0 8h18v4H0z"/></symbol><symbol id="france" viewBox="0 0 512 512"><circle cx="256" cy="256" r="256" fill="#f0f0f0"/><path d="M512 256c0-110.071-69.472-203.906-166.957-240.077v480.155C442.528 459.906 512 366.071 512 256z" fill="#d80027"/><path d="M0 256c0 110.071 69.473 203.906 166.957 240.077V15.923C69.473 52.094 0 145.929 0 256z" fill="#0052b4"/></symbol><symbol id="ge" viewBox="0 0 512 512"><path d="M15.923 345.043C52.094 442.527 145.929 512 256 512s203.906-69.473 240.077-166.957L256 322.783l-240.077 22.26z" fill="#ffda44"/><path d="M256 0C145.929 0 52.094 69.472 15.923 166.957L256 189.217l240.077-22.261C459.906 69.472 366.071 0 256 0z"/><path d="M15.923 166.957C5.633 194.69 0 224.686 0 256s5.633 61.31 15.923 89.043h480.155C506.368 317.31 512 287.314 512 256s-5.632-61.31-15.923-89.043H15.923z" fill="#d80027"/></symbol><symbol id="insta"><path d="M2.183.213C.863.213 0 1.079 0 2.219c0 1.114.837 2.005 2.132 2.005h.025c1.346 0 2.183-.891 2.183-2.005C4.315 1.079 3.503.213 2.183.213zM.229 5.809h3.858v11.609H.23V5.808zM13.557 5.536c-2.082 0-3.478 1.956-3.478 1.956V5.81H6.221v11.609h3.858v-6.483c0-.347.025-.694.127-.942.28-.693.914-1.41 1.98-1.41 1.396 0 1.955 1.064 1.955 2.624v6.21h3.858v-6.656c0-3.565-1.904-5.225-4.442-5.225z" fill="#fff"/></symbol><symbol id="italy" viewBox="0 0 512 512"><circle cx="256" cy="256" r="256" fill="#f0f0f0"/><path d="M512 256c0-110.071-69.472-203.906-166.957-240.077v480.155C442.528 459.906 512 366.071 512 256z" fill="#d80027"/><path d="M0 256c0 110.071 69.472 203.906 166.957 240.077V15.923C69.472 52.094 0 145.929 0 256z" fill="#6da544"/></symbol><symbol id="japan" viewBox="0 0 512 512"><circle cx="256" cy="256" r="256" fill="#f0f0f0"/><circle cx="256" cy="256" r="111.304" fill="#d80027"/></symbol><symbol id="leaf" viewBox="0 0 52.737 52.737"><path d="M42.765 37.677c-.152.411.447.74.731.426 2.294-2.413 4.04-2.166 5.238.742 2.31 1.393 2.695 3.228 1.155 5.505-1.068 1.966-3.3 3.245-5.342 3.829-1.112.318-2.282.468-3.467.508-.042-.278-.233-.532-.593-.539a7.172 7.172 0 01-.519-.035.621.621 0 00-.396-.049c-6.632-1.003-6.3-11.392-8.443-16.278a26.756 26.756 0 00-6.562-9.083C17.204 16.027 6.485 12.609 3.783 2.176l.029-.15a.4.4 0 00-.181-.434c-.03-.134-.074-.255-.102-.392-.091-.457-.773-.33-.787.107-.017.489-.012.973-.01 1.458C-1.18 15.557-1.891 31.581 7.394 42.26c7.509 8.636 20.216 11.78 30.897 7.965 6.357.714 14.401-1.377 14.446-9.057.031-5.331-7.698-9.651-9.972-3.491zM7.738 40.181C.21 30.566.982 18.156 2.946 6.717c.307 2.947.947 5.819 1.839 8.616-.663-.349-1.302-.737-1.951-1.127-.229-.137-.463.176-.281.364.731.762 1.625 1.326 2.567 1.793a52.467 52.467 0 002.135 5.247 18.16 18.16 0 01-3.409-1.771c-.396-.264-.737.356-.367.628a17.43 17.43 0 004.376 2.365 63.75 63.75 0 003.542 6.2 9.695 9.695 0 01-1.721-.639c-.809-.396-1.519-.945-2.35-1.296-.156-.066-.281.144-.208.271.971 1.683 3.2 2.536 5.092 2.892a86.798 86.798 0 004.713 6.3c-1.857-.572-3.647-1.264-5.483-1.971-.307-.118-.469.347-.215.511 2.069 1.338 4.504 2.243 6.891 2.864 1.485 1.7 3.058 3.324 4.742 4.8a20.917 20.917 0 01-5.285-.782c-.474-.133-.639.551-.199.722 2.189.849 4.397 1.187 6.715 1.096 1.66 1.342 3.417 2.545 5.289 3.542-1.497.075-2.98.022-4.522-.152-.365-.041-.397.505-.083.611 2.167.733 4.533.891 6.799.589.991.422 2.007.796 3.059 1.098-9.845 2.013-20.477-1.113-26.893-9.307zm26.137 7.457a25.589 25.589 0 01-1.579-.554c-2.086-1.48-2.863-3.835-3.336-6.241-.091-.466-.705-.288-.756.102-.235 1.786.337 3.45 1.311 4.879-1.525-.799-2.957-1.744-4.323-2.782-.024-.057-.036-.116-.084-.169-1.773-1.946-2.482-4.322-2.47-6.925.002-.465-.769-.602-.839-.114-.249 1.742.029 3.43.708 4.969a52.137 52.137 0 01-3.331-3.351c-.011-.04-.004-.08-.026-.119-1.46-2.575-1.658-5.191-1.393-8.082.038-.413-.576-.455-.694-.094-.633 1.932-.53 3.983.033 5.91a81.814 81.814 0 01-3.803-4.928c.093-.11.146-.248.082-.419-.94-2.491-.755-4.801-.211-7.351.075-.354-.419-.602-.607-.256-.973 1.793-1.122 3.879-.746 5.861a61.466 61.466 0 01-3.112-5.27c.06-.103.094-.219.047-.338-.621-1.558-.539-3.032-.163-4.636.097-.413-.507-.713-.713-.301a5.572 5.572 0 00-.565 2.389 47.796 47.796 0 01-1.067-2.561c-.075-.196-.135-.396-.207-.593.228-.067.387-.3.243-.566-.661-1.224-.136-2.222.562-3.257.2-.296-.178-.573-.447-.447-.686.321-1.061.977-1.199 1.706a40.757 40.757 0 01-1.356-6.299c-.052-.4-.308-1.919-.515-3.158l.032-.175C5.379 14.553 19.98 18.923 25.952 25.834c4.775 5.526 4.676 11.621 7.229 17.961.802 1.991 1.998 3.579 3.611 4.555a25.098 25.098 0 01-2.917-.712z" fill="#c3e9ec" data-original="#1d1d1b" xmlns="http://www.w3.org/2000/svg"/></symbol><symbol id="logo-top" viewBox="0 0 40 40" preserveAspectRatio="xMidYMid"><path d="M0 .031l40-.032v39.97l-40 .03z"/><path d="M12.533 60.999s4.493-27.468-7.533-30-21.871-12.793-19.767-29.654c3.136-25.12 29.756-25.443 38.999-18.474 9.243 6.972 12.015 15.607 8.091 28.288C26.9 28.678 6.036 26.855 0 17.999-6.036 9.143-1.755-8.826 13.444-7.699c8.228.61 10.788 5.926 10.788 10.776 0 6.583-3.382 10.585-8.286 11.904C11.041 16.3 5.178 13.281 5 9c-.179-4.283 2.344-5.909 5-6 2.656-.092 4.908.886 5 3.999.091 3.114-4 3-4 3" fill="none" stroke="#fff" stroke-width="2"/><path d="M36.693 69.999s-2.935-15.524 3.454-16.263c6.39-.739 13.961-7.221 12.715-16.474-1.857-13.787-17.623-13.964-23.097-10.138-5.474 3.826-7.04 8.543-4.792 15.524 2.649 8.225 15.592 7.816 19.167 2.957 3.575-4.859 1.016-13.925-7.986-13.306-4.873.334-6.389 3.252-6.389 5.914 0 3.612 2.003 5.808 4.907 6.532 2.905.724 5.728-.324 6.064-2.806.335-2.482-1.245-4.056-3.032-4.677-1.788-.62-2.92.216-3.032 1.871-.111 1.655 2.021 2.806 2.021 2.806" fill="none" stroke="#fff" stroke-width="2"/></symbol><symbol id="logo"><path d="M145.996 22.672a5.187 5.187 0 005.131-3.518 5.206 5.206 0 00.249-2.194 5.49 5.49 0 00-.262-2.264 5.531 5.531 0 00-5.237-3.768 5.531 5.531 0 00-5.237 3.768 5.55 5.55 0 00-.262 2.264 5.4 5.4 0 00.344 2.204 5.385 5.385 0 005.274 3.461zm7.458-3.634a8.97 8.97 0 01-4.483 4.72 7.46 7.46 0 01-7.601-.897 7.128 7.128 0 01-2.974-7.458 6.898 6.898 0 015.76-5.948 7.16 7.16 0 015.707.708 7.156 7.156 0 012.167 1.986c.576.804.981 1.72 1.19 2.688z" fill="#27363b"/><path d="M144.719 16.724l2.408-.897v-.613l-2.408-.756zm-1.935-3.54h4.391c.944 0 1.792.566 1.792 1.557a8.977 8.977 0 01-.66 2.644l1.134 3.257c-1.465.472-2.361.33-2.549-1.322a1.514 1.514 0 00-1.441-1.472 1.516 1.516 0 00-.732.15v2.786h-1.7z" fill="#27363b"/><path d="M20.45 61.074c-2.357-.21-4.684-.889-6.879-2.008-1.86-.949-3.218-1.954-4.817-3.567l-1.401-1.412-2.406-.038c-2.859-.044-3.185-.141-3.652-1.084-.337-.679-.274-1.257.198-1.818.602-.716.414-.7 8.629-.7 7.096 0 7.552.013 7.946.223.675.363.909.775.904 1.596-.004.646-.044.754-.418 1.14-.227.235-.606.48-.842.546-.235.065-1.339.12-2.452.12-1.848 0-2.024.019-2.023.212.003.285 1.482 1.234 2.853 1.829.6.26 1.686.629 2.412.818 1.228.32 1.48.343 3.616.342 2.107-.001 2.405-.03 3.623-.337 2.712-.685 5.002-1.993 7.015-4.008 2.218-2.22 3.582-4.801 4.183-7.92.23-1.186.197-4.321-.057-5.53-.865-4.115-3.35-7.671-6.934-9.923-.873-.549-1.065-.488-1.672.53a425.82 425.82 0 00-3.437 5.92 406.528 406.528 0 01-2.013 3.482c-.423.718-.768 1.429-.768 1.579 0 .191.14.352.472.538.885.497.855 1.414-.08 2.408-.635.676-.447.748-4.985-1.907-.83-.486-1.808-1.045-2.173-1.242-2.334-1.262-2.543-1.598-1.784-2.865.5-.836.994-1.005 1.773-.608.318.163.565.219.68.154.099-.055.403-.479.675-.94.559-.948 2.368-4.072 3.671-6.339l2.192-3.806c.728-1.263 1.973-3.432 2.767-4.821 1.695-2.964 2.306-3.706 3.344-4.064.38-.132.932-.24 1.225-.24h.533l.77-1.298c.903-1.527 1.09-1.617 2.068-.998.695.44.73.693.211 1.572-.2.338-.362.645-.362.681 0 .037-.106.215-.234.395-.395.555-.41.87-.076 1.586.355.763.414 1.847.143 2.61-.091.257-.575 1.171-1.075 2.03-.5.86-.883 1.632-.85 1.716.032.084.665.56 1.407 1.059 2.344 1.573 3.83 3.037 5.288 5.21a18.798 18.798 0 012.18 16.616c-1.05 3.044-3.087 6.04-5.476 8.061-3.967 3.354-8.889 4.946-13.913 4.5zm2.82-5.727c-.33-.4-.093-.59 1.447-1.156 4.205-1.549 6.657-3.542 8.246-6.705.824-1.639 1.42-4.213 1.42-6.124 0-.829.125-1.066.556-1.066.341 0 .412.203.412 1.19 0 3.132-1.135 6.528-2.935 8.787-1.671 2.097-4.148 3.752-7.208 4.818-1.36.473-1.718.52-1.937.256zm-5.254-6.86c-.43-.615-.062-1.343.678-1.343.44 0 .826.392.826.839 0 .7-1.107 1.07-1.504.503zm-4.701-.316c-.234-.258-.262-.756-.055-.963.08-.08.286-.145.46-.145.172 0 .379.065.458.145.217.217.175.757-.076.984-.287.26-.539.254-.787-.02zm-9.277-.715c-.265-.689-.583-2.44-.709-3.915-.452-5.289 1.519-10.67 5.31-14.497 1.416-1.43 2.572-2.323 4.219-3.26l1.103-.63v-3.957c0-3.497-.022-3.966-.191-4.03-.106-.041-.76-.074-1.457-.074-1.47 0-1.905-.158-2.168-.79-.232-.554-.216-.889.065-1.35.445-.73.649-.768 3.84-.732l2.872.032.03 6.709.032 6.709-1.18.54c-5.14 2.357-8.432 6.985-8.983 12.626-.194 1.985.071 4.24.72 6.125.13.377.205.717.166.755-.039.04-.851.071-1.806.071H4.166zm7.24-1.692c-.287-.336-.324-.56-.155-.962.285-.678 1.159-.682 1.443-.007.26.62-.08 1.18-.72 1.18-.217 0-.465-.092-.567-.211zm4.77-.665c-.277-.358-.269-.59.031-.89.376-.376.771-.34 1.013.09.16.286.156.352-.03.635-.225.345-.802.438-1.013.165zm3.67-20.764c-.644-.506-.296-1.441.535-1.441.325 0 .667.282.731.604.075.377-.146.856-.448.971-.417.159-.455.152-.819-.134zm2.802-3.526c-.313-.253-.342-.541-.084-.868.302-.384.588-.394.93-.03.325.346.329.5.02.807-.276.277-.594.31-.866.091zm-2.61-3.904c-.29-.203-.343-.536-.144-.908.177-.33.774-.31 1.016.035.248.355.237.528-.054.82-.29.29-.464.302-.819.053z" fill="#00b9b5"/><path d="M23.27 55.347c-.33-.4-.093-.59 1.447-1.156 4.205-1.549 6.657-3.542 8.246-6.705.824-1.639 1.42-4.213 1.42-6.124 0-.829.125-1.066.556-1.066.341 0 .412.203.412 1.19 0 3.132-1.135 6.528-2.935 8.787-1.671 2.097-4.148 3.752-7.208 4.818-1.36.473-1.718.52-1.937.256zm-5.254-6.86c-.43-.615-.062-1.343.678-1.343.44 0 .826.392.826.839 0 .7-1.107 1.07-1.504.503zM4.038 47.455c-.265-.689-.583-2.44-.709-3.915-.452-5.289 1.519-10.67 5.31-14.497 1.416-1.43 2.572-2.323 4.219-3.26l1.103-.63v-3.957c0-3.497-.022-3.966-.191-4.03-.106-.041-.76-.074-1.457-.074-1.47 0-1.905-.158-2.168-.79-.232-.554-.216-.889.065-1.35.445-.73.649-.768 3.84-.732l2.872.032.03 6.709.032 6.709-1.18.54c-5.14 2.357-8.432 6.985-8.983 12.626-.194 1.985.071 4.24.72 6.125.13.377.205.717.166.755-.039.04-.851.071-1.806.071H4.166zm7.24-1.692c-.287-.336-.324-.56-.155-.962.285-.678 1.159-.682 1.443-.007.26.62-.08 1.18-.72 1.18-.217 0-.465-.092-.567-.211zm8.44-21.429c-.644-.506-.296-1.441.535-1.441.325 0 .667.282.731.604.075.377-.146.856-.448.971-.417.159-.455.152-.819-.134z" fill="#27363b"/><text style="line-height:1.25;-inkscape-font-specification:&apos;Courier New Bold Italic&apos;" x="54.838" y="37.934" transform="scale(.99327 1.00678)" font-style="italic" font-weight="700" font-size="30.928" font-family="Courier New" letter-spacing="0" word-spacing="0" fill="#00b9b5" stroke-width="1.16"><tspan x="54.838" y="37.934" style="-inkscape-font-specification:&apos;Aharoni Bold&apos;" font-style="normal" font-family="Aharoni">POLY</tspan></text><text transform="scale(.9582 1.04362)" y="58.645" x="56.254" style="line-height:1.25;-inkscape-font-specification:&apos;Courier New Bold Italic&apos;" font-style="italic" font-weight="700" font-size="29.836" font-family="Courier New" letter-spacing="0" word-spacing="0" fill="#27363b" stroke-width="1.119"><tspan style="-inkscape-font-specification:&apos;Aharoni Bold&apos;" y="58.645" x="56.254" font-style="normal" font-family="Aharoni">FARM</tspan></text></symbol><symbol id="logo_bottom"><path d="M145.996 22.672a5.187 5.187 0 005.131-3.518 5.206 5.206 0 00.249-2.194 5.49 5.49 0 00-.262-2.264 5.531 5.531 0 00-5.237-3.768 5.531 5.531 0 00-5.237 3.768 5.55 5.55 0 00-.262 2.264 5.4 5.4 0 00.344 2.204 5.385 5.385 0 005.274 3.461zm7.458-3.634a8.97 8.97 0 01-4.483 4.72 7.46 7.46 0 01-7.601-.897 7.128 7.128 0 01-2.974-7.458 6.898 6.898 0 015.76-5.948 7.16 7.16 0 015.707.708 7.156 7.156 0 012.167 1.986c.576.804.981 1.72 1.19 2.688z" fill="#27363b"/><path d="M144.719 16.724l2.408-.897v-.613l-2.408-.756zm-1.935-3.54h4.391c.944 0 1.792.566 1.792 1.557a8.977 8.977 0 01-.66 2.644l1.134 3.257c-1.465.472-2.361.33-2.549-1.322a1.514 1.514 0 00-1.441-1.472 1.516 1.516 0 00-.732.15v2.786h-1.7z" fill="#27363b"/><path d="M20.45 61.074c-2.357-.21-4.684-.889-6.879-2.008-1.86-.949-3.218-1.954-4.817-3.567l-1.401-1.412-2.406-.038c-2.859-.044-3.185-.141-3.652-1.084-.337-.679-.274-1.257.198-1.818.602-.716.414-.7 8.629-.7 7.096 0 7.552.013 7.946.223.675.363.909.775.904 1.596-.004.646-.044.754-.418 1.14-.227.235-.606.48-.842.546-.235.065-1.339.12-2.452.12-1.848 0-2.024.019-2.023.212.003.285 1.482 1.234 2.853 1.829.6.26 1.686.629 2.412.818 1.228.32 1.48.343 3.616.342 2.107-.001 2.405-.03 3.623-.337 2.712-.685 5.002-1.993 7.015-4.008 2.218-2.22 3.582-4.801 4.183-7.92.23-1.186.197-4.321-.057-5.53-.865-4.115-3.35-7.671-6.934-9.923-.873-.549-1.065-.488-1.672.53a425.82 425.82 0 00-3.437 5.92 406.528 406.528 0 01-2.013 3.482c-.423.718-.768 1.429-.768 1.579 0 .191.14.352.472.538.885.497.855 1.414-.08 2.408-.635.676-.447.748-4.985-1.907-.83-.486-1.808-1.045-2.173-1.242-2.334-1.262-2.543-1.598-1.784-2.865.5-.836.994-1.005 1.773-.608.318.163.565.219.68.154.099-.055.403-.479.675-.94.559-.948 2.368-4.072 3.671-6.339l2.192-3.806c.728-1.263 1.973-3.432 2.767-4.821 1.695-2.964 2.306-3.706 3.344-4.064.38-.132.932-.24 1.225-.24h.533l.77-1.298c.903-1.527 1.09-1.617 2.068-.998.695.44.73.693.211 1.572-.2.338-.362.645-.362.681 0 .037-.106.215-.234.395-.395.555-.41.87-.076 1.586.355.763.414 1.847.143 2.61-.091.257-.575 1.171-1.075 2.03-.5.86-.883 1.632-.85 1.716.032.084.665.56 1.407 1.059 2.344 1.573 3.83 3.037 5.288 5.21a18.798 18.798 0 012.18 16.616c-1.05 3.044-3.087 6.04-5.476 8.061-3.967 3.354-8.889 4.946-13.913 4.5zm2.82-5.727c-.33-.4-.093-.59 1.447-1.156 4.205-1.549 6.657-3.542 8.246-6.705.824-1.639 1.42-4.213 1.42-6.124 0-.829.125-1.066.556-1.066.341 0 .412.203.412 1.19 0 3.132-1.135 6.528-2.935 8.787-1.671 2.097-4.148 3.752-7.208 4.818-1.36.473-1.718.52-1.937.256zm-5.254-6.86c-.43-.615-.062-1.343.678-1.343.44 0 .826.392.826.839 0 .7-1.107 1.07-1.504.503zm-4.701-.316c-.234-.258-.262-.756-.055-.963.08-.08.286-.145.46-.145.172 0 .379.065.458.145.217.217.175.757-.076.984-.287.26-.539.254-.787-.02zm-9.277-.715c-.265-.689-.583-2.44-.709-3.915-.452-5.289 1.519-10.67 5.31-14.497 1.416-1.43 2.572-2.323 4.219-3.26l1.103-.63v-3.957c0-3.497-.022-3.966-.191-4.03-.106-.041-.76-.074-1.457-.074-1.47 0-1.905-.158-2.168-.79-.232-.554-.216-.889.065-1.35.445-.73.649-.768 3.84-.732l2.872.032.03 6.709.032 6.709-1.18.54c-5.14 2.357-8.432 6.985-8.983 12.626-.194 1.985.071 4.24.72 6.125.13.377.205.717.166.755-.039.04-.851.071-1.806.071H4.166zm7.24-1.692c-.287-.336-.324-.56-.155-.962.285-.678 1.159-.682 1.443-.007.26.62-.08 1.18-.72 1.18-.217 0-.465-.092-.567-.211zm4.77-.665c-.277-.358-.269-.59.031-.89.376-.376.771-.34 1.013.09.16.286.156.352-.03.635-.225.345-.802.438-1.013.165zm3.67-20.764c-.644-.506-.296-1.441.535-1.441.325 0 .667.282.731.604.075.377-.146.856-.448.971-.417.159-.455.152-.819-.134zm2.802-3.526c-.313-.253-.342-.541-.084-.868.302-.384.588-.394.93-.03.325.346.329.5.02.807-.276.277-.594.31-.866.091zm-2.61-3.904c-.29-.203-.343-.536-.144-.908.177-.33.774-.31 1.016.035.248.355.237.528-.054.82-.29.29-.464.302-.819.053z" fill="#00b9b5"/><path d="M23.27 55.347c-.33-.4-.093-.59 1.447-1.156 4.205-1.549 6.657-3.542 8.246-6.705.824-1.639 1.42-4.213 1.42-6.124 0-.829.125-1.066.556-1.066.341 0 .412.203.412 1.19 0 3.132-1.135 6.528-2.935 8.787-1.671 2.097-4.148 3.752-7.208 4.818-1.36.473-1.718.52-1.937.256zm-5.254-6.86c-.43-.615-.062-1.343.678-1.343.44 0 .826.392.826.839 0 .7-1.107 1.07-1.504.503zM4.038 47.455c-.265-.689-.583-2.44-.709-3.915-.452-5.289 1.519-10.67 5.31-14.497 1.416-1.43 2.572-2.323 4.219-3.26l1.103-.63v-3.957c0-3.497-.022-3.966-.191-4.03-.106-.041-.76-.074-1.457-.074-1.47 0-1.905-.158-2.168-.79-.232-.554-.216-.889.065-1.35.445-.73.649-.768 3.84-.732l2.872.032.03 6.709.032 6.709-1.18.54c-5.14 2.357-8.432 6.985-8.983 12.626-.194 1.985.071 4.24.72 6.125.13.377.205.717.166.755-.039.04-.851.071-1.806.071H4.166zm7.24-1.692c-.287-.336-.324-.56-.155-.962.285-.678 1.159-.682 1.443-.007.26.62-.08 1.18-.72 1.18-.217 0-.465-.092-.567-.211zm8.44-21.429c-.644-.506-.296-1.441.535-1.441.325 0 .667.282.731.604.075.377-.146.856-.448.971-.417.159-.455.152-.819-.134z" fill="#f5f5f5"/><text transform="scale(.99327 1.00678)" y="37.934" x="54.838" style="line-height:1.25;-inkscape-font-specification:&apos;Courier New Bold Italic&apos;" font-style="italic" font-weight="700" font-size="30.928" font-family="Courier New" letter-spacing="0" word-spacing="0" fill="#00b9b5" stroke-width="1.16"><tspan style="-inkscape-font-specification:&apos;Aharoni Bold&apos;" y="37.934" x="54.838" font-style="normal" font-family="Aharoni">POLY</tspan></text><text transform="scale(.9582 1.04362)" y="59.434" x="56.809" style="line-height:1.25;-inkscape-font-specification:&apos;Courier New Bold Italic&apos;" font-style="italic" font-weight="700" font-size="29.836" font-family="Courier New" letter-spacing="0" word-spacing="0" fill="#f5f5f5" stroke-width="1.119"><tspan style="-inkscape-font-specification:&apos;Aharoni Bold&apos;" y="59.434" x="56.809" font-style="normal" font-family="Aharoni">FARM</tspan></text></symbol><symbol id="mail"><path d="M1.055.89h9.89C11.527.89 12 1.361 12 1.943v6.112c0 .582-.473 1.055-1.055 1.055h-9.89A1.056 1.056 0 010 8.056V1.944C0 1.362.473.889 1.055.889zm.137.702l.141.118 4.249 3.537a.654.654 0 00.836 0l4.249-3.537.14-.118H1.193zm10.105.508L7.835 4.982l3.462 2.304V2.1zM1.055 8.408h9.89c.17 0 .312-.121.345-.282L7.272 5.452l-.404.336a1.354 1.354 0 01-1.736 0l-.404-.336L.71 8.126c.033.16.175.282.345.282zM.703 7.286l3.462-2.304L.703 2.1v5.186z" fill="#7E2E84"/></symbol><symbol id="menu"><path stroke="#7E2E7A" d="M.354.646l4 4M7.646.646l-4 4"/></symbol><symbol id="menu1"><path stroke="#7E2E7A" stroke-width="2" d="M0 1h30M0 9h22M0 17h15"/></symbol><symbol id="microphone"><path d="M18.51 5.2l-1.612-.646V1.11C16.898.497 16.401 0 15.791 0a1.11 1.11 0 00-1.101.997c-1.708 2.845-5.85 3.068-7.089 3.068h-3.69c-.916 0-1.68.674-1.82 1.554l-1.22.305c-.4.1-.648.38-.648.728V8.87c0 .348.248.627.648.728l1.22.305c.14.88.904 1.553 1.82 1.553h.37v4.383c0 .64.496 1.161 1.107 1.161h1.475c.61 0 1.107-.521 1.107-1.162v-4.375c1.546.05 5.155.455 6.72 3.062.056.559.529.997 1.101.997.61 0 1.107-.498 1.107-1.109v-3.446l1.613-.646c.164-.066.6-.24.6-.712V5.913c0-.472-.436-.647-.6-.713zM.96 8.846v-2.17a.319.319 0 01.09-.035l1.017-.255v2.75L1.05 8.88a.318.318 0 01-.09-.035zm5.903 7.415H5.388c-.2 0-.37-.194-.37-.422v-4.383h2.214v4.382c0 .23-.169.423-.369.423zm4.864-4.871c-1.422-.509-2.856-.641-3.757-.667V9.424a.37.37 0 10-.738 0v1.293h-3.32c-.61 0-1.107-.497-1.107-1.108V5.913c0-.611.497-1.109 1.107-1.109h3.32v1.294a.37.37 0 10.738 0v-1.3c.901-.025 2.335-.158 3.757-.666 1.236-.442 2.226-1.076 2.957-1.89V13.28c-.731-.815-1.721-1.448-2.957-1.89zm4.433 3.023a.37.37 0 01-.738 0V1.109a.37.37 0 01.738 0v13.304zm2.214-4.842a.953.953 0 01-.137.064l-1.339.537V5.35l1.339.537c.075.03.115.05.137.064v3.62z" fill="#7E2E84"/></symbol><symbol id="phone"><path d="M16.024 11.788c-.39-.405-.86-.622-1.358-.622-.494 0-.968.213-1.373.618l-1.27 1.265c-.104-.056-.208-.108-.309-.16-.145-.072-.281-.14-.398-.213-1.188-.755-2.269-1.74-3.305-3.012-.502-.635-.84-1.17-1.084-1.711.329-.302.634-.615.931-.916.113-.112.225-.229.338-.341.843-.844.843-1.936 0-2.78L7.099 2.82c-.124-.125-.253-.253-.373-.382a18.953 18.953 0 00-.755-.747c-.39-.385-.856-.59-1.346-.59-.49 0-.964.205-1.365.59l-.008.008-1.366 1.378a2.938 2.938 0 00-.871 1.867c-.097 1.173.249 2.266.514 2.98.65 1.756 1.622 3.382 3.072 5.125a18.9 18.9 0 006.294 4.928c.924.438 2.157.956 3.534 1.045.085.004.173.008.253.008.928 0 1.707-.334 2.318-.996.004-.008.012-.012.016-.02.209-.253.45-.482.703-.727.172-.165.349-.338.522-.518.397-.414.606-.896.606-1.39 0-.498-.213-.976-.618-1.378l-2.205-2.213zm1.437 4.23c-.004 0-.004.003 0 0-.156.168-.317.32-.49.49-.26.248-.526.51-.775.803-.405.433-.883.638-1.51.638-.06 0-.124 0-.185-.004-1.192-.076-2.3-.542-3.132-.94a17.84 17.84 0 01-5.928-4.642c-1.37-1.651-2.286-3.177-2.892-4.816-.374-1-.51-1.78-.45-2.514.04-.47.22-.86.554-1.193l1.37-1.37c.197-.184.405-.285.61-.285.253 0 .458.153.587.281l.012.012c.245.23.478.466.723.72.124.128.253.256.381.389l1.097 1.096c.425.426.425.82 0 1.245-.117.117-.23.233-.346.346-.337.345-.658.667-1.008.98-.008.008-.016.012-.02.02-.345.345-.281.683-.209.912l.012.036c.285.69.687 1.341 1.298 2.116l.004.004c1.108 1.366 2.277 2.43 3.566 3.246.165.104.333.188.494.269.145.072.281.14.398.213.016.008.032.02.048.028a.87.87 0 00.398.1c.333 0 .542-.209.61-.277l1.374-1.374c.136-.136.353-.3.606-.3.25 0 .454.156.578.292l.008.008 2.213 2.213c.414.41.414.832.004 1.257z"/><path d="M11.269 4.527a5.093 5.093 0 012.77 1.437 5.12 5.12 0 011.439 2.772c.044.265.273.45.534.45.032 0 .06-.005.092-.009a.543.543 0 00.446-.626 6.194 6.194 0 00-1.739-3.354 6.195 6.195 0 00-3.354-1.739.545.545 0 00-.626.442.536.536 0 00.438.627zM19.992 8.394a10.19 10.19 0 00-2.863-5.522A10.191 10.191 0 0011.606.008a.54.54 0 10-.176 1.069 9.126 9.126 0 014.936 2.558 9.099 9.099 0 012.558 4.936c.044.265.273.45.534.45.032 0 .06-.004.093-.008a.532.532 0 00.441-.619z" fill="#7E2E7A"/></symbol><symbol id="plant" viewBox="0 0 512 512"><path d="M163.685 407.141l-.085.085a7.498 7.498 0 00-.03 10.606 7.478 7.478 0 005.318 2.212 7.476 7.476 0 005.288-2.182l.085-.085a7.498 7.498 0 00.03-10.606 7.5 7.5 0 00-10.606-.03zM224.896 383.146l-.085.085a7.5 7.5 0 005.303 12.803 7.474 7.474 0 005.303-2.197l.085-.085a7.5 7.5 0 000-10.606 7.5 7.5 0 00-10.606 0zM234.213 258.792c0-15.045-12.24-27.286-27.286-27.286-15.061 0-27.313 12.24-27.313 27.286 0 15.061 12.253 27.314 27.313 27.314 15.046 0 27.286-12.253 27.286-27.314zm-39.599 0c0-6.774 5.524-12.286 12.313-12.286 6.774 0 12.286 5.511 12.286 12.286 0 6.79-5.511 12.314-12.286 12.314-6.789 0-12.313-5.524-12.313-12.314zM284.709 393.223c-20.875 0-37.858 16.983-37.858 37.859 0 20.891 16.983 37.887 37.858 37.887 20.891 0 37.886-16.996 37.886-37.887 0-20.875-16.995-37.859-37.886-37.859zm0 60.747c-12.604 0-22.858-10.267-22.858-22.887 0-12.604 10.254-22.859 22.858-22.859 12.62 0 22.886 10.255 22.886 22.859 0 12.62-10.266 22.887-22.886 22.887zM113.529 422.137c-14.326 0-25.981 11.643-25.981 25.954 0 14.327 11.655 25.982 25.981 25.982s25.981-11.655 25.981-25.982c0-14.312-11.655-25.954-25.981-25.954zm0 36.935c-6.055 0-10.981-4.926-10.981-10.982 0-6.04 4.926-10.954 10.981-10.954s10.981 4.914 10.981 10.954c0 6.056-4.926 10.982-10.981 10.982zM404.722 387.2l-.085.085a7.5 7.5 0 005.303 12.803 7.474 7.474 0 005.303-2.197l.085-.085a7.5 7.5 0 000-10.606 7.5 7.5 0 00-10.606 0zM420.725 444.473l-.085.085a7.498 7.498 0 00-.03 10.606 7.478 7.478 0 005.318 2.212 7.476 7.476 0 005.288-2.182l.085-.085a7.498 7.498 0 00.03-10.606 7.5 7.5 0 00-10.606-.03zM421.534 353.968c13.873 0 25.16-11.287 25.16-25.16 0-13.889-11.287-25.188-25.16-25.188-13.889 0-25.188 11.299-25.188 25.188 0 13.873 11.299 25.16 25.188 25.16zm0-35.348c5.602 0 10.16 4.57 10.16 10.188 0 5.602-4.558 10.16-10.16 10.16-5.617 0-10.188-4.558-10.188-10.16 0-5.618 4.57-10.188 10.188-10.188z"/><path d="M472.925 36.227H370.143c-15.624 0-28.334 13.436-28.334 29.95 0 14.527 9.855 26.664 22.875 29.359v247.84L286.086 239.88c-10.075-13.249-20.527-40.372-20.58-62.83l-.293-117.325c15.133-1.489 26.995-14.286 26.995-29.804C292.209 13.423 278.773 0 262.259 0h-110.69c-16.515 0-29.95 13.423-29.95 29.922 0 15.517 11.863 28.315 26.995 29.804V177.05c-.052 22.436-10.786 49.569-20.848 62.834l-25.058 32.996a7.501 7.501 0 0011.946 9.073l25.061-33c11.003-14.506 22.699-43.238 23.553-69.089h25.462a7.5 7.5 0 000-15h-25.379l.063-24.997h25.317a7.5 7.5 0 000-15h-25.279l.063-24.997h25.216a7.5 7.5 0 000-15h-25.179l.063-24.997h86.6v117.208c.062 26.573 12.519 56.87 23.93 71.875l52.917 69.681c-17.871-5.739-35.407-6.694-53.721-3.063-19.13 3.791-37.225 12.075-56.797 22.25-39.41-28.311-98.047-22.141-137.213-8.94l14.663-19.092a7.5 7.5 0 00-11.897-9.137l-45.526 59.277c-11.658 15.199-20.404 36.102-23.996 57.349-3.869 22.885-1.571 44.467 6.47 60.769 7.64 15.488 24.12 33.95 59.25 33.95h257.238c18.876 0 34.649-5.623 46.191-16.317 10.264 10.083 24.32 16.317 39.81 16.317 31.347 0 56.85-25.503 56.85-56.852V204.197a7.5 7.5 0 00-15 0v48.215c-11.265 5.47-27.619 4.862-37.687-1.871-12.654-8.445-30.919-10.281-46.013-5.509v-28.914h25.098a7.5 7.5 0 000-15h-25.098v-25.025h25.098a7.5 7.5 0 000-15h-25.098v-24.997h25.098a7.5 7.5 0 000-15h-25.098V96.1h83.7v73.486a7.5 7.5 0 0015 0V95.537c13.02-2.695 22.875-14.833 22.875-29.359 0-16.515-12.711-29.951-28.334-29.951zm-321.356 8.646c-8.244 0-14.95-6.707-14.95-14.951 0-8.228 6.707-14.922 14.95-14.922h110.69c8.244 0 14.95 6.694 14.95 14.922 0 8.244-6.707 14.951-14.95 14.951zM48.471 369.065l12.11-15.767c30.111-17.327 97.718-32.201 140.776-7.43l-1.686.902c-43.488 23.296-92.546 49.548-166.947 52.625 3.967-11.503 9.407-22.065 15.747-30.33zM335.533 497H78.295c-22.015 0-37.423-8.608-45.797-25.585-7.858-15.93-8.299-36.906-4.008-56.862 80.632-2.283 134.661-31.202 178.263-54.559 50.111-26.844 86.429-46.289 139.046-16.681l18.884 24.866v86.97a56.496 56.496 0 007.789 28.671c-8.845 8.75-21.242 13.18-36.939 13.18zm81.831-233.986c8.081 5.404 18.454 8.106 28.834 8.105 5.865 0 11.731-.865 17.185-2.591v186.62c0 23.077-18.774 41.852-41.85 41.852s-41.85-18.774-41.85-41.852V261.147c11.258-5.462 27.611-4.854 37.681 1.867zM472.925 81.1H370.143c-7.353 0-13.334-6.694-13.334-14.922 0-8.244 5.982-14.95 13.334-14.95h102.782c7.353 0 13.334 6.707 13.334 14.95 0 8.227-5.982 14.922-13.334 14.922z"/></symbol><symbol id="plant1" viewBox="-38 0 484 484.048"><path d="M405.777 2.344a8.005 8.005 0 00-7.57-2.114c-10.984 2.715-108 27.204-133.855 53.024a78.777 78.777 0 00-23.88 47.328 58.558 58.558 0 0012.91 42.84l-22.16 22.16a119.526 119.526 0 00-27.152 41.914 119.472 119.472 0 00-27.152-41.914l-22.16-22.16a58.544 58.544 0 0012.914-42.84 78.798 78.798 0 00-23.879-47.328C117.961 27.434 20.918 2.945 9.938.23A8.005 8.005 0 00.254 9.91c2.707 10.985 27.203 108 53.02 133.852a75.707 75.707 0 0052.917 24.168 59.47 59.47 0 0037.23-13.22l22.188 22.185a103.208 103.208 0 0130.149 67.152H132.07a8 8 0 000 16h16v168c0 30.93 25.075 56 56 56 30.93 0 56-25.07 56-56v-168h16a8 8 0 000-16h-63.687a103.212 103.212 0 0130.152-67.152l22.184-22.184a59.488 59.488 0 0037.234 13.219 75.715 75.715 0 0052.918-24.168c25.817-25.825 50.313-122.867 53.016-133.852a8.005 8.005 0 00-2.11-7.566zM64.582 132.449c-16.797-16.8-36.062-78.762-45.39-113.281 34.48 9.328 96.519 28.64 113.288 45.398 18.04 18.043 27.352 45 10.84 67.418l-23.746-23.738 8.739-17.469a8.004 8.004 0 00-3.579-10.738A8 8 0 00114 83.617l-6.344 12.703-16.383-16.36 8.797-17.472a7.997 7.997 0 00-.441-8.023 7.996 7.996 0 00-7.188-3.594 8.008 8.008 0 00-6.683 4.465l-6.39 12.71-20.442-20.444a7.994 7.994 0 00-7.778-2.184 8.005 8.005 0 00-5.714 5.715 7.994 7.994 0 002.183 7.777L68.07 79.344l-12.703 6.351a8.015 8.015 0 00-3.601 10.75 8.014 8.014 0 0010.746 3.602l17.472-8.8 16.36 16.362-12.703 6.352a8 8 0 00-3.578 10.734 8.004 8.004 0 0010.738 3.578l17.465-8.738 23.742 23.738c-22.426 16.528-49.39 7.176-67.426-10.824zM244.07 428.047c0 22.094-17.906 40-40 40-22.09 0-40-17.906-40-40v-168h32v24a8 8 0 0016 0v-24h32zm99.489-295.598c-18.04 18.031-45 27.352-67.422 10.848l23.742-23.738 17.465 8.738a8.012 8.012 0 0010.758-3.559c1.988-3.949.394-8.765-3.559-10.754l-12.703-6.351 16.32-16.387 17.512 8.8c3.953 1.99 8.77.4 10.754-3.554a8.01 8.01 0 00-3.555-10.758l-12.8-6.39 20.44-20.434a7.992 7.992 0 002.18-7.777c-.73-2.797-2.914-4.985-5.71-5.715s-5.774.102-7.782 2.184l-20.422 20.445-6.355-12.703a7.997 7.997 0 00-13.867-.871 7.997 7.997 0 00-.442 8.023l8.758 17.465-16.36 16.36-6.343-12.704a8 8 0 00-10.734-3.578 8.004 8.004 0 00-3.579 10.738l8.735 17.47-23.742 23.737c-16.512-22.402-7.2-49.375 10.84-67.418 16.746-16.757 78.785-36.07 113.265-45.398-9.328 34.52-28.633 96.52-45.394 113.281zm0 0"/><path d="M204.07 308.047a8 8 0 00-8 8v80a8 8 0 0016 0v-80a8 8 0 00-8-8zm0 0M204.07 420.047a8 8 0 00-8 8v16a8 8 0 0016 0v-16a8 8 0 00-8-8zm0 0"/></symbol><symbol id="plus"><path d="M11.201 13.021H7.18a.67.67 0 000 1.34h4.021a.67.67 0 000-1.34zM9.497 11.547l2.68-2.01a.67.67 0 00-.804-1.073h.001L9.766 9.67V4.31a.67.67 0 00-1.34 0V9.67L6.816 8.464a.67.67 0 00-.805 1.071v.001l2.682 2.01a.729.729 0 00.803 0z" fill="#272C3E"/><circle cx="9" cy="9" r="8.426" stroke="#272C3E" stroke-width="1.149"/></symbol><symbol id="portugal" viewBox="0 0 512 512"><path d="M0 256c0 110.07 69.472 203.905 166.955 240.076l22.262-240.077-22.262-240.076C69.472 52.095 0 145.929 0 256z" fill="#6da544"/><path d="M512 256C512 114.616 397.384 0 256 0c-31.314 0-61.311 5.633-89.045 15.923v480.154C194.689 506.368 224.686 512 256 512c141.384 0 256-114.616 256-256z" fill="#d80027"/><circle cx="166.957" cy="256" r="89.043" fill="#ffda44"/><path d="M116.87 211.478v55.652c0 27.662 22.424 50.087 50.087 50.087s50.087-22.424 50.087-50.087v-55.652H116.87z" fill="#d80027"/><path d="M166.957 283.826c-9.206 0-16.696-7.49-16.696-16.696v-22.26h33.391v22.261c0 9.205-7.49 16.695-16.695 16.695z" fill="#f0f0f0"/></symbol><symbol id="russia" viewBox="0 0 512 512"><circle cx="256" cy="256" r="256" fill="#f0f0f0"/><path d="M496.077 345.043C506.368 317.31 512 287.314 512 256s-5.632-61.31-15.923-89.043H15.923C5.633 194.69 0 224.686 0 256s5.633 61.31 15.923 89.043L256 367.304l240.077-22.261z" fill="#0052b4"/><path d="M256 512c110.071 0 203.906-69.472 240.077-166.957H15.923C52.094 442.528 145.929 512 256 512z" fill="#d80027"/></symbol><symbol id="search"><path d="M13.061 13L17 16.939"/><circle cx="7.5" cy="7.5" r="6.75" fill="#fff"/></symbol><symbol id="sertificat"><path d="M48.654 16.607H13.348a.909.909 0 100 1.818h35.306a.909.909 0 100-1.818zM48.654 26.504H13.348a.909.909 0 100 1.817h35.306a.909.909 0 100-1.817zM37.079 32.926H24.923a.909.909 0 100 1.818h12.156a.909.909 0 100-1.818zM48.654 21.535H22.319a.909.909 0 100 1.818h26.335a.909.909 0 100-1.818zM18.09 21.535h-4.742a.909.909 0 100 1.818h4.742a.909.909 0 100-1.818z" fill="#000"/><path d="M57.308 15.07a1.12 1.12 0 00-.79-.321 3.429 3.429 0 01-3.434-3.28 1.117 1.117 0 00-1.118-1.066H9.818c-.6 0-1.092.469-1.119 1.067a3.457 3.457 0 01-3.275 3.275 1.117 1.117 0 00-1.067 1.119v23.495c0 .6.469 1.091 1.067 1.118A3.458 3.458 0 018.7 43.753a1.117 1.117 0 001.119 1.066h26.831a.909.909 0 100-1.818H10.443a5.216 5.216 0 00-4.268-4.268V16.49a5.216 5.216 0 004.268-4.268H51.34a5.243 5.243 0 004.484 4.3v15.436a.909.909 0 101.817 0V15.869c0-.303-.119-.586-.334-.798z" fill="#000"/><path d="M59.477 5.866H2.523A2.526 2.526 0 000 8.39v38.444a2.526 2.526 0 002.523 2.523h38.15l-1.35 2.83a1.078 1.078 0 001.146 1.531l2.514-.404 1.403 2.302a1.078 1.078 0 001.896-.096l2.437-5.107 2.437 5.106a1.079 1.079 0 001.897.098l1.402-2.303 2.515.405c.398.063.795-.097 1.036-.42.24-.323.283-.749.11-1.111l-1.351-2.83h2.712A2.526 2.526 0 0062 46.832V8.39a2.526 2.526 0 00-2.523-2.523zm-14.248 47.64l-.952-1.562a1.075 1.075 0 00-1.093-.504l-1.615.26 1.701-3.565a3.24 3.24 0 002.617.96c.339-.032.679.06.956.257.092.065.187.123.283.177l-1.897 3.976zm3.707-5.39h-.009a1.43 1.43 0 01-.415 0h-.01a1.418 1.418 0 01-.606-.246 3.238 3.238 0 00-2.18-.584 1.42 1.42 0 01-1.425-.823 3.232 3.232 0 00-.419-.675l-.023-.03-.027-.034a3.234 3.234 0 00-1.128-.858 1.42 1.42 0 01-.822-1.424 3.238 3.238 0 00-.584-2.18 1.42 1.42 0 010-1.646c.45-.633.657-1.407.584-2.18a1.42 1.42 0 01.822-1.425 3.238 3.238 0 001.597-1.597c.251-.549.825-.88 1.425-.822a3.238 3.238 0 002.18-.585 1.42 1.42 0 011.645 0c.634.45 1.408.657 2.181.585a1.42 1.42 0 011.425.822c.323.707.89 1.274 1.597 1.597.548.251.88.823.822 1.424a3.238 3.238 0 00.584 2.181 1.42 1.42 0 010 1.645 3.239 3.239 0 00-.584 2.181 1.42 1.42 0 01-.823 1.425 3.235 3.235 0 00-1.128.859l-.023.028-.027.035a3.23 3.23 0 00-.418.674 1.42 1.42 0 01-1.425.823 3.242 3.242 0 00-2.18.584c-.185.13-.392.213-.606.246zm5.318 3.324a1.076 1.076 0 00-1.093.504l-.952 1.561-1.897-3.976c.096-.055.191-.112.283-.177.278-.198.617-.29.956-.257a3.238 3.238 0 002.617-.96l1.7 3.564-1.614-.26zm5.928-4.607a.706.706 0 01-.705.705h-3.58l-.468-.982c.023-.012.047-.025.071-.036a3.24 3.24 0 001.876-3.25 1.42 1.42 0 01.256-.956 3.24 3.24 0 000-3.751 1.42 1.42 0 01-.256-.956 3.24 3.24 0 00-1.876-3.25 1.421 1.421 0 01-.7-.7 3.24 3.24 0 00-3.25-1.875 1.418 1.418 0 01-.955-.256 3.24 3.24 0 00-3.752 0 1.419 1.419 0 01-.956.256 3.24 3.24 0 00-3.249 1.876 1.42 1.42 0 01-.7.7 3.24 3.24 0 00-1.876 3.248 1.42 1.42 0 01-.256.957 3.24 3.24 0 000 3.751c.197.278.288.617.256.957a3.24 3.24 0 001.876 3.248l.071.037-.468.982H2.523a.706.706 0 01-.705-.705V8.39c0-.389.316-.705.705-.705h56.954c.389 0 .705.316.705.705v38.444z" fill="#000"/><path d="M48.653 34.792a5.653 5.653 0 00-5.647 5.647 5.653 5.653 0 005.647 5.647 5.653 5.653 0 005.647-5.647 5.653 5.653 0 00-5.647-5.647zm0 9.476a3.834 3.834 0 01-3.83-3.83 3.834 3.834 0 013.83-3.829 3.834 3.834 0 013.83 3.83 3.834 3.834 0 01-3.83 3.829z" fill="#000"/></symbol><symbol id="south-korea" viewBox="0 0 512 512"><circle cx="256" cy="256" r="256" fill="#f0f0f0"/><path d="M345.043 256c0 22.261-39.866 77.913-89.043 77.913S166.957 278.261 166.957 256c0-49.178 39.866-89.043 89.043-89.043s89.043 39.865 89.043 89.043z" fill="#d80027"/><path d="M345.043 256c0 49.178-39.866 89.043-89.043 89.043S166.957 305.178 166.957 256" fill="#0052b4"/><path d="M350.442 334.705l23.61-23.61 15.741 15.74-23.61 23.61zM311.085 374.06l23.61-23.612 15.741 15.741-23.61 23.611zM397.67 381.917l23.611-23.61 15.74 15.74-23.61 23.61zM358.314 421.278l23.61-23.61 15.741 15.74-23.61 23.611zM374.055 358.313l23.61-23.61 15.741 15.74-23.61 23.61zM334.709 397.667l23.61-23.61 15.741 15.74-23.61 23.611zM397.678 177.29l-62.963-62.963 15.741-15.74 62.962 62.962zM334.713 161.558l-23.61-23.61 15.74-15.74 23.61 23.61zM374.06 200.907l-23.61-23.611 15.74-15.74 23.61 23.61zM381.915 114.336l-23.61-23.611 15.74-15.741 23.61 23.61zM421.283 153.688l-23.611-23.61 15.74-15.741 23.612 23.61zM90.723 358.318l62.962 62.962-15.74 15.74-62.963-62.961zM153.68 374.05l23.611 23.611-15.74 15.74-23.61-23.61zM114.33 334.703l23.611 23.611-15.74 15.741-23.611-23.61zM137.943 311.091l62.962 62.963-15.74 15.74-62.963-62.962zM153.684 90.72L90.72 153.683l-15.74-15.741 62.962-62.963zM177.287 114.325l-62.963 62.963-15.74-15.741 62.962-62.962zM200.912 137.947l-62.962 62.962-15.74-15.74 62.962-62.962z"/></symbol><symbol id="spain" viewBox="0 0 512 512"><path d="M0 256c0 31.314 5.633 61.31 15.923 89.043L256 367.304l240.077-22.261C506.367 317.31 512 287.314 512 256s-5.633-61.31-15.923-89.043L256 144.696 15.923 166.957C5.633 194.69 0 224.686 0 256z" fill="#ffda44"/><g fill="#d80027"><path d="M496.077 166.957C459.906 69.473 366.071 0 256 0S52.094 69.473 15.923 166.957h480.154zM15.923 345.043C52.094 442.527 145.929 512 256 512s203.906-69.473 240.077-166.957H15.923z"/></g></symbol><symbol id="telegram"><path d="M7.063 9.886l-.298 4.188c.426 0 .61-.183.832-.403l1.997-1.909 4.139 3.031c.759.423 1.294.2 1.498-.698l2.717-12.729C18.19.242 17.544-.196 16.804.08L.836 6.193c-1.09.423-1.074 1.03-.186 1.306l4.083 1.27 9.482-5.934c.447-.295.852-.132.518.164l-7.67 6.887z" fill="#fff"/></symbol><symbol id="turkey" viewBox="0 0 512 512"><circle cx="256" cy="256" r="256" fill="#d80027"/><g fill="#f0f0f0"><path d="M245.518 209.186l21.005 28.945 34.017-11.03-21.038 28.92 21.002 28.944-34.005-11.072-21.037 28.92.022-35.761-34.006-11.072 34.018-11.03z"/><path d="M188.194 328.348c-39.956 0-72.348-32.392-72.348-72.348s32.392-72.348 72.348-72.348c12.458 0 24.18 3.151 34.414 8.696-16.055-15.702-38.012-25.392-62.24-25.392-49.178 0-89.043 39.866-89.043 89.043s39.866 89.043 89.043 89.043c24.23 0 46.186-9.691 62.24-25.392-10.234 5.547-21.956 8.698-34.414 8.698z"/></g></symbol><symbol id="users"><g clip-path="url(#clip0)"><path d="M25.48 28.844a16.315 16.315 0 00-3.43-1.83 8.75 8.75 0 002.847-5.771 12.938 12.938 0 0116.406-1.344 1.72 1.72 0 002.444-2.337 1.719 1.719 0 00-.477-.482 16.334 16.334 0 00-3.43-1.83 8.766 8.766 0 10-11.8-.019 16.316 16.316 0 00-3.744 2.034 8.765 8.765 0 10-14.061 9.715A16.53 16.53 0 00.252 37.263a5.157 5.157 0 004.909 6.736h14.953a1.719 1.719 0 000-3.438H5.16a1.72 1.72 0 01-1.637-2.246 13.26 13.26 0 0112.6-8.97 12.856 12.856 0 017.39 2.317 1.72 1.72 0 101.966-2.819v.001zm8.47-25.406a5.328 5.328 0 110 10.656 5.328 5.328 0 010-10.656zM16.16 15.199a5.328 5.328 0 11.001 10.655 5.328 5.328 0 010-10.655zm27.845 20.637a1.719 1.719 0 01-1.72 1.719H37.56v4.726a1.719 1.719 0 01-3.438 0v-4.727h-4.724a1.719 1.719 0 110-3.438h4.726V29.39a1.72 1.72 0 113.438 0v4.726h4.726a1.718 1.718 0 011.719 1.719l-.001.001z" fill="#232020"/></g></symbol><symbol id="vk"><path d="M18.83 10.398c-.05-.086-.366-.772-1.886-2.183-1.592-1.477-1.378-1.237.539-3.792 1.167-1.556 1.634-2.506 1.488-2.912-.14-.387-.998-.285-.998-.285l-2.855.017s-.211-.029-.37.065c-.152.093-.25.307-.25.307s-.453 1.204-1.057 2.227c-1.272 2.16-1.781 2.275-1.989 2.14-.483-.312-.362-1.256-.362-1.926 0-2.093.317-2.966-.619-3.192-.31-.075-.539-.125-1.333-.133-1.02-.01-1.883.004-2.37.242-.326.16-.577.514-.424.535.19.025.617.115.844.424.293.397.282 1.293.282 1.293s.169 2.464-.393 2.77c-.386.21-.914-.218-2.048-2.179-.581-1.003-1.02-2.114-1.02-2.114s-.085-.206-.236-.317c-.183-.134-.44-.177-.44-.177L.62 1.225s-.407.012-.557.189c-.133.158-.01.483-.01.483s2.125 4.973 4.531 7.48c2.208 2.298 4.714 2.147 4.714 2.147h1.135s.343-.038.518-.227c.161-.173.155-.499.155-.499s-.022-1.524.686-1.748c.697-.22 1.592 1.473 2.541 2.125.717.492 1.262.384 1.262.384l2.538-.035s1.328-.082.699-1.126z" fill="#fff"/></symbol><symbol id="youtube"><path d="M15.723 9.627c-.196-.851-.892-1.479-1.73-1.572-1.983-.222-3.992-.223-5.99-.222-2 0-4.008 0-5.992.222-.838.093-1.533.721-1.729 1.572C.003 10.839 0 12.16 0 13.409c0 1.248 0 2.57.279 3.782.195.85.891 1.479 1.729 1.572 1.984.222 3.992.223 5.991.222 2 .001 4.008 0 5.992-.222.837-.093 1.533-.721 1.729-1.572.278-1.212.28-2.534.28-3.782 0-1.248.002-2.57-.277-3.782zm-11.16.94H3.407v6.152H2.33v-6.153H1.193V9.558h3.37v1.008zm2.922 6.153h-.967v-.582c-.385.44-.75.655-1.105.655-.312 0-.526-.126-.623-.396-.053-.162-.085-.417-.085-.794v-4.22h.966v3.93c0 .226 0 .344.01.375.022.15.096.227.225.227.194 0 .397-.15.612-.453v-4.078h.967v5.336zm3.674-1.602c0 .494-.034.85-.098 1.075-.13.397-.388.6-.772.6-.345 0-.677-.19-1-.59v.517h-.967V9.558h.967v2.339c.312-.384.644-.579 1-.579.384 0 .643.203.772.602.065.215.098.568.098 1.073v2.125zm3.649-.89h-1.934v.946c0 .494.162.74.494.74.238 0 .377-.129.432-.387a6.07 6.07 0 00.021-.655h.987v.14c0 .312-.012.527-.02.623a1.378 1.378 0 01-.226.58c-.268.387-.665.578-1.17.578-.506 0-.891-.182-1.17-.546-.205-.267-.31-.688-.31-1.255v-1.869c0-.57.093-.987.298-1.257.28-.365.664-.547 1.158-.547.485 0 .87.182 1.14.547.203.27.3.687.3 1.257v1.105z" fill="#fff"/><path d="M13.358 12.189c-.323 0-.485.247-.485.74v.494h.967v-.494c0-.493-.162-.74-.482-.74zM9.771 12.189c-.159 0-.32.075-.482.235v3.252c.161.162.323.239.482.239.28 0 .42-.239.42-.72v-2.278c0-.481-.14-.728-.42-.728zM10.312 7.341c.356 0 .727-.216 1.116-.662v.588h.977V1.875h-.977v4.121c-.217.306-.422.458-.617.458-.131 0-.208-.078-.23-.23-.011-.031-.011-.15-.011-.379v-3.97h-.974v4.264c0 .38.032.638.086.802.098.273.315.4.63.4zM3.508 4.337v2.93H4.59v-2.93L5.895.03H4.799l-.74 2.842L3.292.03H2.15c.228.67.466 1.345.694 2.016.348 1.01.565 1.77.663 2.29zM7.348 7.341c.49 0 .87-.184 1.14-.552.205-.27.303-.695.303-1.268V3.633c0-.577-.098-.998-.303-1.27-.27-.37-.65-.554-1.14-.554-.487 0-.867.185-1.138.554-.207.272-.306.693-.306 1.27V5.52c0 .573.099.999.306 1.268.27.368.65.552 1.138.552zm-.466-3.904c0-.499.15-.748.466-.748.315 0 .466.249.466.748v2.268c0 .5-.151.749-.466.749-.315 0-.466-.25-.466-.749V3.437z" fill="#fff"/></symbol></svg>