<svg id="Layer_1" data-name="Layer 1" xmlns="http://www.w3.org/2000/svg" xmlns:xlink="http://www.w3.org/1999/xlink" viewBox="0 0 1366 365"><defs><style>.cls-1{fill:none;}.cls-2{clip-path:url(#clip-path);}.cls-3{opacity:0.1;}.cls-4{opacity:0.18;}.cls-5{fill:#7aaba8;}</style><clipPath id="clip-path"><rect class="cls-1" width="1364" height="408"/></clipPath></defs><title>blobs</title><g id="Layer_1-2" data-name="Layer 1"><g class="cls-2"><g class="cls-3"><path d="M467.24-53c-2.48,84.82-40.88,154.13-92.89,198.46s-116.8,66.22-182.63,81.35S58,250.91-5.79,271.92c-70.46,23.22-138.62,61.39-217.31,47.39-68.76-12.23-135.56-62.78-199.33-111.88-29.83-23-64.79-56.2-64.05-94.61.76-38.8,37.1-50.19,67.43-56.09C-329.51,39.3-244.68,7.66-160-23.9L387.8-228.36c56.95,35.24,99.35,115.6,98.27,186.2Z"/></g><g class="cls-3"><path d="M1109.5-157.88c-2.28,77.63-37.42,141.07-85,181.63S917.58,84.36,857.33,98.22s-122.41,22-180.77,41.27c-64.49,21.25-126.86,56.19-198.89,43.38-62.93-11.2-124.06-57.46-182.43-102.4-27.3-21-59.3-51.44-58.62-86.59.69-35.51,33.95-45.94,61.71-51.34,81.95-15.95,159.6-44.91,237-73.79l501.46-187.14c52.12,32.26,90.93,105.8,89.94,170.42Z"/></g><g class="cls-4"><path class="cls-5" d="M808.15-106.94c131-42.21,266.74-44.56,400.24-46.55,41.42-.61,84.52-.86,120.13,17.91,38.44,20.26,63,60.28,78.84,102.39s24.31,87.47,39.39,129.93c45.46,128,148.86,225.31,178.72,359.61,3.79,17,5.67,37.19-5.62,51.75-10.52,13.59-29.4,17.08-44.4,12.76s-27.08-14.83-38.79-25A3411.34,3411.34,0,0,0,1056.83,146.4C965.33,91.25,866,34.76,822.38-66.37Z"/></g></g></g></svg>