<svg width="18" height="18" viewBox="0 0 18 18" fill="none" xmlns="http://www.w3.org/2000/svg">
<path d="M2.18286 0.212646C0.86297 0.212646 0 1.07935 0 2.21852C0 3.33252 0.837262 4.22395 2.13221 4.22395H2.15726C3.50297 4.22395 4.34045 3.33252 4.34045 2.21852C4.31529 1.07935 3.50297 0.212646 2.18286 0.212646Z" fill="white"/>
<path d="M0.228516 5.80893H4.08711V17.4177H0.228516V5.80893Z" fill="white"/>
<path d="M13.5568 5.53647C11.4752 5.53647 10.0794 7.49246 10.0794 7.49246V5.80893H6.2207V17.4177H10.0792V10.9349C10.0792 10.5878 10.1043 10.2413 10.2063 9.99315C10.4852 9.30014 11.12 8.58219 12.186 8.58219C13.5823 8.58219 14.1407 9.64675 14.1407 11.2074V17.4177H17.999V10.7614C17.999 7.19572 16.0953 5.53647 13.5568 5.53647Z" fill="white"/>
</svg>
