<?xml version="1.0" encoding="UTF-8" standalone="no"?>
<svg
   xmlns:dc="http://purl.org/dc/elements/1.1/"
   xmlns:cc="http://creativecommons.org/ns#"
   xmlns:rdf="http://www.w3.org/1999/02/22-rdf-syntax-ns#"
   xmlns:svg="http://www.w3.org/2000/svg"
   xmlns="http://www.w3.org/2000/svg"
   id="svg899"
   version="1.1"
   fill="none"
   viewBox="0 0 155 72"
   height="72"
   width="155">
  <metadata
     id="metadata905">
    <rdf:RDF>
      <cc:Work
         rdf:about="">
        <dc:format>image/svg+xml</dc:format>
        <dc:type
           rdf:resource="http://purl.org/dc/dcmitype/StillImage" />
        <dc:title></dc:title>
      </cc:Work>
    </rdf:RDF>
  </metadata>
  <defs
     id="defs903" />
  <path
     style="display:inline;fill:#27363b;fill-opacity:1;stroke-width:3.40698862"
     id="path865"
     d="m 145.99634,22.672258 c 0.74272,0.03101 1.48545,-0.09845 2.17368,-0.379197 0.68819,-0.280736 1.31166,-0.70627 1.81931,-1.247979 0.51105,-0.541712 0.89945,-1.186655 1.13794,-1.891562 0.23849,-0.704565 0.32366,-1.4524 0.24871,-2.193079 0.0715,-0.764869 -0.0169,-1.536211 -0.26233,-2.264625 -0.2419,-0.728412 -0.63712,-1.398227 -1.15497,-1.965832 -0.51786,-0.567946 -1.14816,-1.021416 -1.85,-1.331793 -0.70184,-0.310376 -1.4616,-0.470506 -2.23158,-0.470506 -0.76658,0 -1.52634,0.160125 -2.23157,0.470506 -0.70184,0.310377 -1.33214,0.763847 -1.85,1.331793 -0.51785,0.567605 -0.90967,1.23742 -1.15498,1.965832 -0.24189,0.728414 -0.33389,1.499756 -0.26233,2.264625 -0.0409,0.750561 0.0783,1.501119 0.3441,2.203642 0.26915,0.702179 0.68141,1.340648 1.20948,1.874524 0.52808,0.533533 1.16519,0.95055 1.86363,1.223789 0.70184,0.273242 1.45138,0.396915 2.20091,0.362846 z m 7.45791,-3.634574 c -0.85176,2.079624 -2.44964,3.764041 -4.48361,4.720382 -1.22992,0.55091 -2.58591,0.758396 -3.92485,0.600311 -1.33893,-0.157746 -2.60975,-0.675266 -3.67613,-1.49737 -1.18564,-0.800303 -2.10552,-1.939941 -2.63702,-3.27037 -0.53149,-1.330428 -0.64731,-2.789642 -0.33728,-4.187871 0.18732,-1.481359 0.84832,-2.862211 1.88747,-3.935072 1.03911,-1.072519 2.39851,-1.7787883 3.87373,-2.012508 0.94716,-0.28244 1.94539,-0.365229 2.92661,-0.2432601 0.98122,0.1216211 1.92835,0.4456342 2.78011,0.9508931 0.85174,0.505596 1.59106,1.181542 2.16683,1.985932 0.57579,0.80439 0.98123,1.719507 1.18904,2.687774 z" />
  <path
     style="display:none;fill:#1d1d1b;fill-opacity:1"
     id="path869"
     d="m 78.465727,42.223972 c -0.0385,0.5211 -0.1504,1.0342 -0.3325,1.5241 -0.2698,0.3466 -0.6159,0.6264 -1.0115,0.8174 -1.2013,0.7193 -2.5528,1.1508 -3.9487,1.2608 -1.3628,0.1937 -2.7521,0.0704 -4.0595,-0.3602 -0.8175,-0.289 -1.5241,-0.8264 -2.021,-1.5369 -0.4969,-0.7106 -0.7592,-1.5587 -0.7501,-2.4257 0,-8.1468 0,-16.2797 0,-24.4265 v -0.6235 h -6.9275 v 0.5265 c 0,6.2486 0,12.4696 0,18.7459 0,1.7873 -0.2494,3.5608 -0.4156,5.3343 0,0.5126 -0.1663,1.0114 -0.2494,1.524 -0.0584,0.39 -0.2167,0.7583 -0.4595,1.0691 -0.2427,0.3107 -0.5617,0.5534 -0.926,0.7044 -1.3084,0.6447 -2.7117,1.075 -4.1566,1.2746 -1.0114,0.1524 -2.0367,0.2356 -3.061999,0.3326 -0.079,0.0022 -0.1577,-0.0114 -0.2314,-0.04 -0.0738,-0.0285 -0.1411,-0.0715 -0.1981,-0.1263 -0.2355,-0.3187 -0.4295,-0.6789 -0.665,-1.0668 0.9976,-0.9283 1.981299,-1.8428 2.951199,-2.7711 0.4955,-0.4018 0.9588,-0.8419 1.3855,-1.3162 0.2417,-0.3636 0.3849,-0.7837 0.4156,-1.2192 0.1571,-1.2597 0.245,-2.5271 0.2632,-3.7964 0,-6.1793 0,-12.3726 0,-18.5658 v -0.5819 c -2.8423,-0.2195 -5.695499,0.256 -8.312999,1.3855 -0.0342,-0.1648 -0.0805,-0.3269 -0.1386,-0.4849 -0.4018,-0.9006 0.2078,-1.3855 0.7759,-1.8428 1.7133,-1.387 3.7737,-2.27822 5.957699,-2.57699 0.9165,-0.14973 1.8426,-0.23307 2.771,-0.24938 6.027,0 12.054,0 18.0809,0 1.3251,-0.01068 2.6448,-0.16871 3.9349,-0.47111 0.8313,-0.18012 1.6626,-0.29094 2.4939,-0.41564 0.2633,0 0.4572,0.08315 0.4018,0.40181 -0.2024,1.89231 -0.8479,3.71031 -1.8843,5.30651 -0.2226,0.2527 -0.4635,0.4889 -0.7205,0.7066 -0.8451,-0.4849 -1.6626,-0.9421 -2.48,-1.3855 -0.4169,-0.2512 -0.8995,-0.3718 -1.3855,-0.3464 -0.3741,0 -0.7343,0 -1.1638,0 v 0.5958 c 0,7.5926 0,15.2406 0,22.8055 -0.0142,0.2605 0.0528,0.5191 0.1918,0.7399 0.1389,0.2209 0.343,0.3932 0.584,0.4932 0.9367,0.4568 1.9438,0.7519 2.9789,0.8729 0.7343,0.1247 1.4686,0.1939 2.2861,0.2909" />
  <path
     style="display:none;fill:#1d1d1b"
     id="path873"
     d="m 136.56799,40.225553 c -8.1e-4,-1.039199 -0.002,-2.092099 -0.002,-3.131299 -0.0161,-0.133487 0.0188,-0.268114 0.0987,-0.376477 0.0799,-0.108262 0.19785,-0.181854 0.32984,-0.205757 0.58585,-0.191656 1.21785,-0.182948 1.79802,0.0249 0.57916,0.207749 1.07347,0.602764 1.40387,1.122607 0.53858,0.735981 0.84427,1.616543 0.87698,2.527918 0.0327,0.911375 -0.20859,1.811663 -0.693,2.58444 -0.31853,0.596649 -0.85618,1.046268 -1.50002,1.253669 -0.64284,0.207301 -1.34188,0.156245 -1.94911,-0.142582 -0.11604,-0.04551 -0.2141,-0.129133 -0.27719,-0.237284 -0.0631,-0.108051 -0.0872,-0.234332 -0.0693,-0.358146 -8e-4,-1.0253 -0.002,-2.0368 -0.002,-3.061999 z m 0.0185,5.791388 -0.001,-1.3855 c 0.48521,0.276722 0.97042,0.539545 1.38564,0.830221 0.58227,0.339447 1.25339,0.495624 1.92535,0.448201 0.67198,-0.04752 1.31478,-0.296424 1.84346,-0.714436 0.69465,-0.441841 1.26117,-1.058682 1.6426,-1.78848 0.38044,-0.729796 0.5638,-1.547039 0.52916,-2.369712 0.0581,-1.100746 -0.18171,-2.19666 -0.69547,-3.17226 -0.37554,-0.694508 -0.89502,-1.300703 -1.52339,-1.778114 -0.62937,-0.47741 -1.35264,-0.814947 -2.12278,-0.990047 -0.43009,-0.122965 -0.88112,-0.159214 -1.32608,-0.106567 -0.44396,0.05264 -0.87385,0.19318 -1.26368,0.413384 l -0.38786,0.180402 -0.003,-3.8378 -0.0202,-1.28952 0.19145,-1.148691 -3.02745,0.930269 5.1e-4,0.6511 c 0.003,4.1566 0.007,8.396198 0.01,12.594297 0.0261,0.18028 -0.007,0.364105 -0.0946,0.523974 -0.0869,0.159768 -0.22378,0.287174 -0.38872,0.363203 -0.17993,0.08484 -0.34685,0.19197 -0.49875,0.318988 -0.11092,0.09709 -0.2768,0.249616 -0.26373,0.346606 0.0141,0.09699 0.11137,0.471013 0.4164,0.512276 l 3.07636,0.454904 0.51305,0.0688" />
  <path
     style="display:none;fill:#1d1d1b"
     id="path877"
     d="m 84.611675,40.048022 c 0,0.3741 0.083,0.9699 0.194,1.5379 0.125,0.9704 0.568,1.872 1.261,2.5632 0.229,0.2071 0.514,0.3424 0.819,0.3892 0.306,0.0468 0.618,0.003 0.899,-0.1259 0.26,-0.149 0.489,-0.3482 0.672,-0.586 0.183,-0.2378 0.317,-0.5096 0.395,-0.7995 0.448,-1.3376 0.562,-2.7647 0.332,-4.1565 -0.1,-0.8822 -0.388,-1.7327 -0.845,-2.494 -0.136,-0.2646 -0.343,-0.4865 -0.597,-0.6415 -0.254,-0.1549 -0.546,-0.2369 -0.844,-0.2369 -0.298,0 -0.589,0.082 -0.844,0.2369 -0.254,0.155 -0.46,0.3769 -0.597,0.6415 -0.616,1.1021 -0.908,2.3554 -0.845,3.6162 z m 7.814,-0.1247 c 0.114,0.7932 0.054,1.6017 -0.175,2.3697 -0.229,0.7679 -0.621,1.4771 -1.151,2.0786 -0.529,0.6014 -1.183,1.0809 -1.915,1.4054 -0.733,0.3245 -1.528,0.4862 -2.329,0.474 -0.801,-0.0121 -1.59,-0.1979 -2.313,-0.5445 -0.722,-0.3466 -1.361,-0.8457 -1.872,-1.463 -0.511,-0.6173 -0.882,-1.338 -1.087,-2.1126 -0.206,-0.7745 -0.241,-1.5844 -0.103,-2.3738 0.04,-1.4309 0.646,-2.7874 1.685,-3.7719 1.039,-0.9845 2.426,-1.5165 3.857,-1.4792 0.725,-0.0464 1.451,0.0617 2.131,0.3171 0.679,0.2555 1.297,0.6525 1.812,1.1647 0.515,0.5121 0.915,1.1279 1.174,1.8063 0.259,0.6785 0.371,1.4043 0.328,2.1292" />
  <path
     style="display:none;fill:#1d1d1b"
     id="path879"
     d="m 126.45399,40.589525 c -0.5265,0.2355 -1.1084,0.4572 -1.6487,0.7204 -0.288,0.1197 -0.5441,0.3047 -0.7482,0.5404 -0.1656,0.2304 -0.2705,0.4988 -0.3051,0.7804 -0.0346,0.2816 0.002,0.5674 0.1071,0.831 0.1049,0.2637 0.2745,0.4966 0.4931,0.6775 0.2186,0.1808 0.4793,0.3038 0.7579,0.3574 0.5265,0.1109 1.3855,-0.3186 1.3855,-0.7343 0,-1.053 0,-2.0921 0,-3.1728 z m -3.2282,-2.009 c -0.5578,0.0018 -1.1145,-0.0492 -1.6626,-0.1524 -0.2217,0 -0.3741,-0.4434 -0.5404,-0.6928 -0.0487,-0.0969 -0.0859,-0.1992 -0.1108,-0.3048 0.4156,-0.2909 0.8313,-0.6235 1.2747,-0.8729 1.068,-0.6837 2.2584,-1.1542 3.5053,-1.3855 0.7909,-0.0558 1.5762,0.1693 2.2175,0.6356 0.6412,0.4664 1.0973,1.1441 1.2878,1.9138 0.0673,0.2813 0.0998,0.5698 0.097,0.859 v 7.4818 c -0.4937,0.1273 -1.0152,0.0938 -1.4886,-0.0956 -0.4734,-0.1894 -0.8741,-0.5247 -1.1439,-0.9574 -0.6445,0.3844 -1.3106,0.7314 -1.9951,1.0391 -0.4337,0.1317 -0.8922,0.1602 -1.3389,0.0833 -0.4467,-0.077 -0.8693,-0.2572 -1.234,-0.5263 -0.3647,-0.2692 -0.6615,-0.6199 -0.8667,-1.024 -0.2052,-0.4042 -0.3131,-0.8507 -0.3151,-1.304 -0.0575,-0.5027 0.0715,-1.009 0.3627,-1.4228 0.2912,-0.4138 0.7242,-0.7062 1.2168,-0.8217 1.2192,-0.485 2.4523,-0.8868 3.6993,-1.2886 0.0646,-0.0116 0.1264,-0.036 0.1816,-0.0716 0.0552,-0.0356 0.1029,-0.0818 0.1402,-0.1358 0.0374,-0.0541 0.0636,-0.115 0.0774,-0.1793 0.0137,-0.0642 0.0146,-0.1306 0.003,-0.1952 0.0396,-0.3843 -0.002,-0.7726 -0.1208,-1.1401 -0.1193,-0.3674 -0.3141,-0.7059 -0.572,-0.9936 -0.3221,-0.2754 -0.7222,-0.4434 -1.1444,-0.4807 -0.4222,-0.0372 -0.8455,0.0581 -1.211,0.2729 -0.0969,0 -0.1246,0.2632 -0.1523,0.4156 -0.0693,0.4157 -0.1109,0.8452 -0.1663,1.3855" />
  <path
     style="display:none;fill:#1d1d1b"
     id="path887"
     d="m 117.45711,45.775196 h -4.3089 v -2.397 l -0.0831,-11.666 c 0,-0.2632 -0.0693,-0.4295 -0.3187,-0.5126 -0.2051,-0.0543 -0.4011,-0.1384 -0.5819,-0.2494 -0.1524,-0.097 -0.3741,-0.2632 -0.3603,-0.3741 0.0139,-0.1108 0.0832,-0.4711 0.4157,-0.5542 1.2483,-0.3052 2.5255,-0.477 3.8101,-0.5126 0,0.3464 0,0.6511 0,0.9698 0,0.8729 0,1.7319 0,2.6048 0,2.6694 0,5.3434 0,8.0221 0,1.0114 0,2.0228 0.0832,3.0343 0.0102,0.0701 0.0352,0.1373 0.0735,0.197 0.0382,0.0598 0.0887,0.1107 0.1482,0.1493 0.2632,0.1525 0.5542,0.2494 0.8451,0.388 0.5542,0.2494 0.5542,0.2494 0.3464,0.9006" />
  <path
     style="display:none;fill:#1d1d1b"
     id="path893"
     d="m 108.527,45.10188 c 0,0.2078 -0.0969,0.4295 -0.1524,0.6512 h -4.3228 v -0.485 c 0,-2.5493 0,-5.1125 0,-7.6619 0.0308,-0.1755 -0.005,-0.3562 -0.0992,-0.5072 -0.0947,-0.151 -0.242,-0.2615 -0.4134,-0.3102 -0.1581,-0.0513 -0.3075,-0.1261 -0.4434,-0.2217 -0.1108,-0.097 -0.2632,-0.2771 -0.2355,-0.3879 0.0277,-0.1109 0.1939,-0.3741 0.3325,-0.4018 1.1361,-0.2217 2.2861,-0.4157 3.4222,-0.6235 l 0.3187,-0.0831 v 0.471 c 0,2.7711 0,5.6391 0,8.4517 -0.0188,0.1114 0.003,0.2258 0.0615,0.3224 0.0585,0.0967 0.1498,0.1691 0.2572,0.2041 0.4156,0.1662 0.8313,0.374 1.2746,0.5819 z" />
  <path
     style="display:none;fill:#1d1d1b"
     id="path895"
     d="m 107.0592,31.81468 c -0.1385,0.194 -0.2632,0.4434 -0.4295,0.6373 -0.1663,0.194 -0.665,0.6651 -0.9837,0.9976 -0.041,0.0572 -0.0951,0.1038 -0.1578,0.136 -0.0626,0.0321 -0.132,0.0489 -0.2024,0.0489 -0.0705,0 -0.1398,-0.0168 -0.2025,-0.0489 -0.0626,-0.0322 -0.1167,-0.0788 -0.1578,-0.136 -0.3731,-0.4121 -0.7202,-0.8471 -1.0391,-1.3024 -0.0437,-0.0833 -0.0665,-0.176 -0.0665,-0.2701 0,-0.0941 0.0228,-0.1868 0.0665,-0.2702 0.3741,-0.4572 0.7897,-0.9006 1.2192,-1.3855 0.0414,-0.0545 0.0948,-0.0988 0.1561,-0.1292 0.0613,-0.0305 0.1288,-0.0463 0.1972,-0.0463 0.0685,0 0.136,0.0158 0.1973,0.0463 0.0613,0.0304 0.1147,0.0747 0.1561,0.1292 l 1.1222,1.3855 c 0,0 0,0.1247 0.0831,0.2494" />
  <path
     style="display:inline;fill:#27363b;fill-opacity:1;stroke-width:3.40698862"
     id="path897"
     d="m 144.71871,16.724338 2.40876,-0.897061 v -0.6136 l -2.40876,-0.755327 z m -1.93516,-3.540542 h 4.39161 c 0.94373,0 1.79209,0.566581 1.79209,1.557675 -0.0852,0.909664 -0.30665,1.801275 -0.66097,2.643823 l 1.13454,3.25674 c -1.46503,0.472208 -2.36106,0.330479 -2.54844,-1.321572 -0.008,-0.253138 -0.0783,-0.500486 -0.20442,-0.719555 -0.12602,-0.21907 -0.30663,-0.402707 -0.52126,-0.534216 -0.21805,-0.131505 -0.46337,-0.206804 -0.71547,-0.218728 -0.25212,-0.01152 -0.50423,0.03985 -0.73252,0.150937 0,0.896719 0,1.793438 0,2.784872 h -1.70007 z" />
  <path
     d="m 100.19057,45.874537 h -4.308904 v -2.397 l -0.0831,-11.666 c 0,-0.2632 -0.0693,-0.4295 -0.3187,-0.5126 -0.2051,-0.0543 -0.4011,-0.1384 -0.5819,-0.2494 -0.1524,-0.097 -0.3741,-0.2632 -0.3603,-0.3741 0.0139,-0.1108 0.0832,-0.4711 0.4157,-0.5542 1.2483,-0.3052 2.5255,-0.477 3.8101,-0.5126 0,0.3464 0,0.6511 0,0.9698 0,0.8729 0,1.7319 0,2.6048 0,2.6694 0,5.3434 0,8.0221 0,1.0114 0,2.0228 0.0832,3.0343 0.0102,0.0701 0.0352,0.1373 0.0735,0.197 0.0382,0.0598 0.0887,0.1107 0.1482,0.1493 0.2632,0.1525 0.5542,0.2494 0.8451,0.388 0.554204,0.2494 0.554204,0.2494 0.346404,0.9006"
     id="path907"
     style="display:none;fill:#1d1d1b" />
  <path
     id="path1468"
     d="M 20.449462,61.074045 C 18.09292,60.864687 15.766086,60.185419 13.571324,59.066128 11.711189,58.117491 10.352594,57.111613 8.7537296,55.499289 L 7.3528117,54.086563 4.9467904,54.049151 C 2.0882351,54.00467 1.7624219,53.907984 1.294567,52.96528 0.95753847,52.286187 1.0205679,51.707969 1.4927947,51.146753 c 0.6018578,-0.715264 0.4137907,-0.70001 8.6291043,-0.70001 7.096325,0 7.552416,0.01285 7.945655,0.223738 0.675296,0.362167 0.908989,0.774628 0.90416,1.595823 -0.0038,0.645877 -0.04334,0.753853 -0.4176,1.139981 -0.227381,0.234589 -0.606156,0.480075 -0.841733,0.545513 -0.235577,0.06547 -1.339205,0.119299 -2.452505,0.119671 -1.847566,6.31e-4 -2.024045,0.01909 -2.022616,0.21215 0.0023,0.285878 1.48184,1.23478 2.852723,1.82937 0.60084,0.260594 1.686301,0.628556 2.412142,0.817696 1.228035,0.320005 1.479209,0.343782 3.615792,0.342322 2.106982,-0.0015 2.405376,-0.0292 3.623055,-0.336718 2.71208,-0.684969 5.001677,-1.99309 7.014881,-4.007828 2.2179,-2.219596 3.581786,-4.801535 4.18357,-7.919819 0.22894,-1.18632 0.196211,-4.322016 -0.05771,-5.530592 -0.864695,-4.115371 -3.349403,-7.671504 -6.933533,-9.92334 -0.87319,-0.548609 -1.065295,-0.487792 -1.672074,0.529387 -0.772484,1.294957 -2.063312,3.518742 -3.437198,5.921479 -0.684097,1.196381 -1.589764,2.762912 -2.012602,3.48118 -0.422833,0.718275 -0.768788,1.42881 -0.768788,1.578966 0,0.191588 0.140794,0.352153 0.472037,0.53832 0.885028,0.497419 0.854986,1.414285 -0.07892,2.407617 -0.635795,0.676271 -0.447841,0.748144 -4.985291,-1.906381 -0.830821,-0.486059 -1.808688,-1.044956 -2.173036,-1.242004 -2.334286,-1.262466 -2.5437,-1.598651 -1.784689,-2.86508 0.500954,-0.835854 0.994336,-1.004965 1.773016,-0.607714 0.318035,0.162246 0.565048,0.218136 0.679951,0.153828 0.09925,-0.05552 0.403298,-0.478857 0.675656,-0.940705 0.5586,-0.947245 2.367873,-4.071253 3.670784,-6.338236 0.477504,-0.830821 1.463841,-2.543828 2.191872,-3.806675 0.728031,-1.262845 1.97338,-3.432157 2.767444,-4.820696 1.694978,-2.963907 2.305559,-3.706013 3.34408,-4.06444 0.380517,-0.131327 0.93162,-0.238778 1.224676,-0.238778 h 0.532838 l 0.769282,-1.299102 c 0.903834,-1.526307 1.091087,-1.616619 2.068392,-0.997591 0.695524,0.440549 0.729498,0.693053 0.21148,1.571613 -0.199398,0.338177 -0.36254,0.644865 -0.36254,0.681532 0,0.03665 -0.105143,0.214324 -0.233661,0.394803 -0.394865,0.554541 -0.409982,0.869267 -0.07618,1.586379 0.354791,0.762218 0.414422,1.846259 0.143509,2.609131 -0.09148,0.257605 -0.575428,1.171553 -1.075447,2.031003 -0.500012,0.859441 -0.882711,1.631446 -0.850432,1.715562 0.03224,0.08412 0.665777,0.560447 1.407777,1.058513 2.344042,1.573436 3.829782,3.037368 5.287814,5.210169 3.294807,4.910051 4.101517,11.05663 2.180815,16.616409 -1.051494,3.043725 -3.087356,6.040018 -5.477053,8.060908 -3.966538,3.354353 -8.888261,4.946306 -13.912218,4.499962 z m 2.821319,-5.727237 c -0.331251,-0.399122 -0.09332,-0.589358 1.446046,-1.156102 4.2056,-1.548382 6.657071,-3.541502 8.246598,-6.704731 0.823421,-1.638633 1.420422,-4.212681 1.420422,-6.124302 0,-0.828289 0.123798,-1.066073 0.555049,-1.066073 0.341569,0 0.411722,0.203004 0.411722,1.191309 0,3.130654 -1.134514,6.527105 -2.934959,8.786539 -1.670887,2.096845 -4.147193,3.751812 -7.207837,4.817153 -1.359728,0.473291 -1.717599,0.520627 -1.937041,0.256207 z m -5.254791,-6.86052 c -0.430009,-0.613927 -0.0619,-1.342711 0.678195,-1.342711 0.439972,0 0.825537,0.39193 0.825537,0.839179 0,0.699394 -1.106927,1.070047 -1.503732,0.503532 z m -4.701139,-0.314956 c -0.233942,-0.258511 -0.262336,-0.755945 -0.05498,-0.963304 0.07975,-0.07975 0.286401,-0.145015 0.459216,-0.145015 0.172808,0 0.379459,0.06524 0.459217,0.145015 0.216705,0.216713 0.174989,0.757177 -0.07596,0.9843 -0.28724,0.259947 -0.539303,0.253226 -0.787472,-0.02099 z M 4.0380667,47.455764 C 3.7725066,46.767122 3.4553923,45.016025 3.3291904,43.541349 2.8765582,38.252318 4.8477418,32.870794 8.6394509,29.043802 10.05541,27.614657 11.211206,26.721249 12.85755,25.783288 l 1.103224,-0.628541 v -3.957491 c 0,-3.497232 -0.0222,-3.966022 -0.191155,-4.030838 -0.105131,-0.04038 -0.7604,-0.07338 -1.456154,-0.07338 -1.470737,0 -1.905005,-0.158109 -2.168877,-0.789647 -0.2317149,-0.554578 -0.2155868,-0.889257 0.06509,-1.349516 0.445248,-0.730228 0.649063,-0.769138 3.840009,-0.733133 l 2.871869,0.03239 0.03117,6.708821 0.03125,6.708829 -1.179256,0.540633 c -5.139826,2.356383 -8.4330204,6.984594 -8.9838503,12.625785 -0.1938162,1.98487 0.071556,4.239581 0.7209364,6.125002 0.1297082,0.376601 0.2040751,0.716481 0.1652638,0.755291 -0.03878,0.03878 -0.8513744,0.07056 -1.8056901,0.07056 h -1.735124 z m 7.2407623,-1.691851 c -0.288273,-0.335646 -0.324575,-0.559871 -0.155676,-0.961567 0.285118,-0.678095 1.158627,-0.682529 1.442536,-0.0076 0.26089,0.620476 -0.08051,1.180368 -0.719729,1.180368 -0.217388,0 -0.464705,-0.09222 -0.567131,-0.211479 z m 4.769895,-0.664656 c -0.27727,-0.358342 -0.269263,-0.590993 0.03065,-0.890914 0.375286,-0.375285 0.77107,-0.339508 1.012175,0.09148 0.159606,0.285316 0.156595,0.351258 -0.02898,0.63445 -0.225562,0.344255 -0.802519,0.438142 -1.013878,0.164983 z m 3.668563,-20.764168 c -0.643178,-0.505921 -0.295518,-1.441395 0.535667,-1.441395 0.325289,0 0.667268,0.282654 0.731072,0.604238 0.07491,0.377339 -0.146222,0.856174 -0.448351,0.971046 -0.417113,0.158588 -0.454296,0.152505 -0.818388,-0.133889 z m 2.803161,-3.525998 c -0.313778,-0.252816 -0.342002,-0.541553 -0.08489,-0.868422 0.302135,-0.384098 0.588924,-0.39339 0.930189,-0.03011 0.325281,0.346253 0.329281,0.499708 0.02106,0.807925 -0.276335,0.276335 -0.594568,0.309633 -0.866363,0.09062 z m -2.611299,-3.90415 c -0.289968,-0.2031 -0.342534,-0.535521 -0.143485,-0.907446 0.176837,-0.330421 0.774613,-0.309927 1.016091,0.03482 0.248626,0.354968 0.237296,0.528171 -0.05362,0.819043 -0.290864,0.290866 -0.464075,0.302196 -0.819035,0.05362 z"
     style="display:inline;fill:#00b9b5;fill-opacity:1;stroke-width:0.12084658" />
  <path
     id="path1466"
     d="m 23.270781,55.346808 c -0.331251,-0.399122 -0.09332,-0.589358 1.446046,-1.156102 4.2056,-1.548382 6.657071,-3.541502 8.246598,-6.704731 0.823421,-1.638633 1.420422,-4.212681 1.420422,-6.124302 0,-0.828289 0.123798,-1.066073 0.555049,-1.066073 0.341569,0 0.411722,0.203004 0.411722,1.191309 0,3.130654 -1.134514,6.527105 -2.934959,8.786539 -1.670887,2.096845 -4.147193,3.751812 -7.207837,4.817153 -1.359728,0.473291 -1.717599,0.520627 -1.937041,0.256207 z m -5.254791,-6.86052 c -0.430009,-0.613927 -0.0619,-1.342711 0.678195,-1.342711 0.439972,0 0.825537,0.39193 0.825537,0.839179 0,0.699394 -1.106927,1.070047 -1.503732,0.503532 z M 4.0380667,47.455764 C 3.7725066,46.767122 3.4553923,45.016025 3.3291904,43.541349 2.8765582,38.252318 4.8477418,32.870794 8.6394509,29.043802 10.05541,27.614657 11.211206,26.721249 12.85755,25.783288 l 1.103224,-0.628541 v -3.957491 c 0,-3.497232 -0.0222,-3.966022 -0.191155,-4.030838 -0.105131,-0.04038 -0.7604,-0.07338 -1.456154,-0.07338 -1.470737,0 -1.905005,-0.158109 -2.168877,-0.789647 -0.2317149,-0.554578 -0.2155868,-0.889257 0.06509,-1.349516 0.445248,-0.730228 0.649063,-0.769138 3.840009,-0.733133 l 2.871869,0.03239 0.03117,6.708821 0.03125,6.708829 -1.179256,0.540633 c -5.139826,2.356383 -8.4330204,6.984594 -8.9838503,12.625785 -0.1938162,1.98487 0.071556,4.239581 0.7209364,6.125002 0.1297082,0.376601 0.2040751,0.716481 0.1652638,0.755291 -0.03878,0.03878 -0.8513744,0.07056 -1.8056901,0.07056 h -1.735124 z m 7.2407623,-1.691851 c -0.288273,-0.335646 -0.324575,-0.559871 -0.155676,-0.961567 0.285118,-0.678095 1.158627,-0.682529 1.442536,-0.0076 0.26089,0.620476 -0.08051,1.180368 -0.719729,1.180368 -0.217388,0 -0.464705,-0.09222 -0.567131,-0.211479 z m 8.438458,-21.428824 c -0.643178,-0.505921 -0.295518,-1.441395 0.535667,-1.441395 0.325289,0 0.667268,0.282654 0.731072,0.604238 0.07491,0.377339 -0.146222,0.856174 -0.448351,0.971046 -0.417113,0.158588 -0.454296,0.152505 -0.818388,-0.133889 z"
     style="display:inline;fill:#f5f5f5;fill-opacity:1;stroke-width:0.12084658" />
  <text
     transform="scale(0.99326634,1.0067793)"
     id="text1500"
     y="37.934322"
     x="54.837967"
     style="font-style:italic;font-variant:normal;font-weight:bold;font-stretch:normal;font-size:30.92811584px;line-height:1.25;font-family:'Courier New';-inkscape-font-specification:'Courier New Bold Italic';letter-spacing:0px;word-spacing:0px;display:inline;fill:#00b9b5;fill-opacity:1;stroke:none;stroke-width:1.15980446;"
     xml:space="preserve"><tspan
       style="font-style:normal;font-variant:normal;font-weight:bold;font-stretch:normal;font-size:30.92811584px;font-family:Aharoni;-inkscape-font-specification:'Aharoni Bold';fill:#00b9b5;fill-opacity:1;stroke-width:1.15980446;"
       y="37.934322"
       x="54.837967"
       id="tspan1498">POLY</tspan></text>
  <path
     transform="matrix(1.2247818,0,0,0.82236791,12.904492,6.4185853)"
     d="M 35.392578,42.214844 V 66.087891 H 49.050781 V 60.892578 H 41.601562 V 42.214844 Z m 23.785156,0 -9.18164,23.873047 h 6.558594 l 1.644531,-4.16211 h 8.570312 l 1.539063,4.16211 H 74.9375 L 65.947266,42.214844 Z m 18.541016,0 v 23.873047 h 9.951172 c 3.008335,0 5.24761,-0.810871 6.716797,-2.431641 1.014438,-1.11938 1.521484,-2.569503 1.521484,-4.353516 0,-1.375905 -0.315661,-2.583334 -0.945312,-3.621093 -0.699613,-1.131041 -2.005694,-1.894569 -3.917969,-2.291016 0.851195,-0.501389 1.482517,-1.109039 1.890625,-1.820313 0.489729,-0.839535 0.734375,-1.881263 0.734375,-3.128906 0,-4.151036 -2.239275,-6.226562 -6.716797,-6.226562 z m 6.208984,4.720703 h 1.136719 c 0.583011,0 1.048631,0.05918 1.398438,0.175781 0.979458,0.349807 1.46875,1.065991 1.46875,2.150391 0,0.617991 -0.185467,1.136873 -0.558594,1.55664 -0.466409,0.52471 -1.235854,0.78711 -2.308594,0.78711 h -1.136719 z m -21.408203,2.660156 2.570313,7.607422 h -5.177735 z m 21.408203,6.732422 h 1.275391 c 1.10772,0 1.889002,0.03551 2.34375,0.105469 1.434206,0.244864 2.152344,1.061653 2.152344,2.449218 0,0.862856 -0.355133,1.504061 -1.066407,1.923829 -0.629651,0.373126 -1.738429,0.558593 -3.324218,0.558593 h -1.38086 z"
     id="text1504"
     style="font-style:normal;font-variant:normal;font-weight:bold;font-stretch:normal;font-size:35.82017517px;line-height:1.25;font-family:Aharoni;-inkscape-font-specification:'Aharoni Bold';letter-spacing:0px;word-spacing:0px;display:none;fill:#f5f5f5;fill-opacity:1;stroke:none;stroke-width:0.74625361" />
  <text
     transform="scale(0.95819914,1.0436244)"
     id="text861"
     y="59.434387"
     x="56.808804"
     style="font-style:italic;font-variant:normal;font-weight:bold;font-stretch:normal;font-size:29.83620071px;line-height:1.25;font-family:'Courier New';-inkscape-font-specification:'Courier New Bold Italic';letter-spacing:0px;word-spacing:0px;display:inline;fill:#f5f5f5;fill-opacity:1;stroke:none;stroke-width:1.11885762;"
     xml:space="preserve"><tspan
       style="font-style:normal;font-variant:normal;font-weight:bold;font-stretch:normal;font-size:29.83620071px;font-family:Aharoni;-inkscape-font-specification:'Aharoni Bold';fill:#f5f5f5;fill-opacity:1;stroke-width:1.11885762;"
       y="59.434387"
       x="56.808804"
       id="tspan859">FARM</tspan></text>
</svg>
